<?xml version="1.0" encoding="UTF-8" standalone="no"?>
<svg
   xmlns:dc="http://purl.org/dc/elements/1.1/"
   xmlns:cc="http://creativecommons.org/ns#"
   xmlns:rdf="http://www.w3.org/1999/02/22-rdf-syntax-ns#"
   xmlns:svg="http://www.w3.org/2000/svg"
   xmlns="http://www.w3.org/2000/svg"
   xmlns:sodipodi="http://sodipodi.sourceforge.net/DTD/sodipodi-0.dtd"
   xmlns:inkscape="http://www.inkscape.org/namespaces/inkscape"
   id="svg2030"
   x="0"
   y="0"
   version="1.1"
   viewBox="0 0 1600 1200"
   xml:space="preserve"
   sodipodi:docname="illustration.svg"
   inkscape:version="0.92.3 (2405546, 2018-03-11)"><metadata
   id="metadata517"><rdf:RDF><cc:Work
       rdf:about=""><dc:format>image/svg+xml</dc:format><dc:type
         rdf:resource="http://purl.org/dc/dcmitype/StillImage" /></cc:Work></rdf:RDF></metadata><sodipodi:namedview
   pagecolor="#ffffff"
   bordercolor="#666666"
   borderopacity="1"
   objecttolerance="10"
   gridtolerance="10"
   guidetolerance="10"
   inkscape:pageopacity="0"
   inkscape:pageshadow="2"
   inkscape:window-width="1366"
   inkscape:window-height="768"
   id="namedview515"
   showgrid="false"
   inkscape:zoom="0.35445856"
   inkscape:cx="653.5549"
   inkscape:cy="556.45673"
   inkscape:window-x="0"
   inkscape:window-y="0"
   inkscape:window-maximized="0"
   inkscape:current-layer="ground_grey" />
  <defs
   id="defs2" />
  <style
   id="style2"
   type="text/css">
    .st1{fill:#5222d0}.st2{fill:#e8e8e8}.st3{fill:#161616}.st4{fill:#fff}.st5{opacity:9.000000e-002;fill:#4c4c4c}.st11,.st6,.st8{opacity:.11;fill:#4c4c4c}.st11,.st8{opacity:.12}.st11{opacity:.1}
  </style>
  <g
   id="background">
    <g
   id="ground_grey">
      <g
   id="g880">
        <g
   id="g878">
          <path
   id="path876"
   d="M452.2 1115l44.9-56.3c13.7-17.1 27.4-34.3 43.4-49.3 1.4-1.3-.7-3.4-2.1-2.1-16 15.1-29.7 32.2-43.4 49.3l-44.9 56.3c-1.2 1.5.9 3.6 2.1 2.1z"
   class="st2" />
        </g>
      </g>
      <g
   id="g886">
        <g
   id="g884">
          <path
   id="path882"
   d="M538.4 1008.8h489c1.9 0 1.9-3 0-3h-489c-2 0-2 3 0 3z"
   class="st2" />
        </g>
      </g>
      <g
   id="g892">
        <g
   id="g890">
          <path
   id="path888"
   d="M1026.9 1009.1c35.7 36.7 69.3 75.3 100.5 115.8 1.2 1.5 3.8 0 2.6-1.5-31.4-40.7-65.1-79.6-101-116.4-1.3-1.4-3.5.7-2.1 2.1z"
   class="st2" />
        </g>
      </g>
      <g
   id="g898">
        <g
   id="g896">
          <path
   id="path894"
   d="M288.2 1020.2h139.4c1.9 0 1.9-3 0-3H288.2c-1.9 0-1.9 3 0 3z"
   class="st2" />
        </g>
      </g>
      
      <g
   id="g910">
        <g
   id="g908">
          <path
   id="path906"
   d="M1263.9 961h211.7c1.9 0 1.9-3 0-3h-211.7c-1.9 0-1.9 3 0 3z"
   class="st2" />
        </g>
      </g>
      <g
   id="g922">
        <g
   id="g920">
          <path
   id="path918"
   d="M1257.3 1016.2h88.1c1.9 0 1.9-3 0-3h-88.1c-1.9 0-1.9 3 0 3z"
   class="st2" />
        </g>
      </g>
    </g>
    <g
   id="ground_black">
      <g
   id="g929"
   style="fill:#2d88ff;fill-opacity:1">
        <g
   id="g927"
   style="fill:#2d88ff;fill-opacity:1">
          <path
   id="path925"
   d="M444.5 957.7h108.9c1.9 0 1.9-3 0-3H444.5c-2 0-2 3 0 3z"
   class="st3"
   style="fill:#2d88ff;fill-opacity:1" />
        </g>
      </g>
      <g
   id="g941"
   style="fill:#2d88ff;fill-opacity:1">
        <g
   id="g939"
   style="fill:#2d88ff;fill-opacity:1">
          <path
   id="path937"
   d="M758.3 957.7H1126.6c1.9 0 1.9-3 0-3H758.3c-1.9 0-1.9 3 0 3z"
   class="st3"
   style="fill:#2d88ff;fill-opacity:1" />
        </g>
      </g>
      <g
   id="g947">
        <g
   id="g945">
          <path
   id="path943"
   d="M1126.6 977.2H1386c1.9 0 1.9-3 0-3h-259.4c-1.9 0-1.9 3 0 3z"
   class="st3" />
        </g>
      </g>
      <g
   id="g953">
        <g
   id="g951">
          <path
   id="path949"
   d="M273.3 1079.6H355c1.9 0 1.9-3 0-3h-81.7c-2 0-2 3 0 3z"
   class="st3" />
        </g>
      </g>
      <g
   id="g959">
        <g
   id="g957">
          <path
   id="path955"
   d="M968.4 1061.5h118c1.9 0 1.9-3 0-3h-118c-2 0-2 3 0 3z"
   class="st3" />
        </g>
      </g>
      <g
   id="g965">
        <g
   id="g963">
          <path
   id="path961"
   d="M1279.6 1065.3h106.3c1.9 0 1.9-3 0-3h-106.3c-1.9 0-1.9 3 0 3z"
   class="st3" />
        </g>
      </g>
    </g>
  </g>
  <g
   id="table__x26__pc_x27_s">
    <g
   id="table">
      <path
   id="path969"
   d="M386.3 701.5v380.9c8.8-.9 17.5-1.8 26.3-2.8V698.7c-8.7.9-17.5 1.8-26.3 2.8z"
   class="st4" />
      <path
   id="path971"
   d="M1146.8 705.6c-.2 124.7-.5 249.3-.7 374h25.6V702.1c-8.2 1.2-16.5 2.4-24.9 3.5z"
   class="st4" />
      <path
   id="path973"
   d="M515.9 955.6a5622.1 5622.1 0 011.4-271.5c-10.6-.2-21.2-.5-31.9-.7-.2 90.3-.5 180.5-.7 270.8 10.4.5 20.8 1 31.2 1.4z"
   style="fill:#2d88ff;fill-opacity:1" />
      <path
   id="path975"
   d="M1045 689.7c.2 88.2.5 176.4.7 264.6 9.5-.2 18.9-.5 28.4-.7l2.1-268.7c-10.4 1.5-20.8 3.2-31.2 4.8z"
   style="fill:#2d88ff;fill-opacity:1" />
      <path
   id="path977"
   d="M343.4 693.8c-.2 7.4-.5 14.8-.7 22.2 286.7.5 573.5.9 860.2 1.4l-2.1-23.5c-92.9-4.1-187.8-6.9-284.7-8.3-198.6-3-389.7.2-572.7 8.2z"
   style="fill:#2d88ff;fill-opacity:1" />
      <path
   id="path979"
   d="M343.4 693.1c285.8.2 571.6.5 857.5.7-30.5-28.9-61-57.7-91.4-86.6-230.6.2-461.3.5-691.9.7-24.8 28.4-49.5 56.8-74.2 85.2z"
   class="st4" />
      <g
   id="g985">
        <g
   id="g983">
          <path
   id="path981"
   d="M343.5 695.1c24.7-29.5 50.1-58.4 76.3-86.6 1.3-1.4-.8-3.5-2.1-2.1-26.2 28.2-51.6 57-76.3 86.6-1.2 1.4.9 3.6 2.1 2.1z"
   class="st3" />
        </g>
      </g>
      <g
   id="g991"
   style="fill:#2d88ff;fill-opacity:1">
        <g
   id="g989"
   style="fill:#2d88ff;fill-opacity:1">
          <path
   id="path987"
   d="M340.8 695.1v18.7c0 1.9 3 1.9 3 0v-18.7c0-1.9-3-1.9-3 0z"
   class="st3"
   style="fill:#2d88ff;fill-opacity:1" />
        </g>
      </g>
      <g
   id="g997"
   style="fill:#2d88ff;fill-opacity:1">
        <g
   id="g995"
   style="fill:#2d88ff;fill-opacity:1">
          <path
   id="path993"
   d="M344.8 717.8h857c1.9 0 1.9-3 0-3h-857c-2 0-2 3 0 3z"
   class="st3"
   style="fill:#2d88ff;fill-opacity:1" />
        </g>
      </g>
      <g
   id="g1003"
   style="fill:#2d88ff;fill-opacity:1"
   transform="translate(-1.6,2.4)">
        <g
   id="g1001"
   style="fill:#2d88ff;fill-opacity:1">
          <path
   id="path999"
   d="m 1204.5,715 v -22.4 c 0,-1.9 -3,-1.9 -3,0 V 715 c 0,2 3,2 3,0 z"
   class="st3"
   style="fill:#2d88ff;fill-opacity:1"
   inkscape:connector-curvature="0" />
        </g>
      </g>
      
      <g
   id="g1015">
        <g
   id="g1013"
   style="fill:#2d88ff;fill-opacity:1">
          <path
   id="path1011"
   d="M343.5 695.4h857c1.9 0 1.9-3 0-3h-857c-1.9 0-1.9 3 0 3z"
   class="st3"
   style="fill:#2d88ff;fill-opacity:1" />
        </g>
      </g>
      <g
   id="g1021">
        <g
   id="g1019">
          <path
   id="path1017"
   d="M420.6 609.6h689c1.9 0 1.9-3 0-3h-689c-1.9 0-1.9 3 0 3z"
   class="st3" />
        </g>
      </g>
      <g
   id="g1027">
        <g
   id="g1025">
          <path
   id="path1023"
   d="M1108.1 609.7l91 84.4c1.4 1.3 3.5-.8 2.1-2.1l-91-84.4c-1.4-1.3-3.5.8-2.1 2.1z"
   class="st3" />
        </g>
      </g>
      <g
   id="g1033">
        <g
   id="g1031">
          <path
   id="path1029"
   d="M385.6 716.3v364.5c0 1.9 3 1.9 3 0V797v-80.7c0-2-3-2-3 0z"
   class="st3" />
        </g>
      </g>
      <g
   id="g1039">
        <g
   id="g1037">
          <path
   id="path1035"
   d="M411.7 717.5v362c0 1.9 3 1.9 3 0v-282-80c0-1.9-3-1.9-3 0z"
   class="st3" />
        </g>
      </g>
      <g
   id="g1045">
        <g
   id="g1043">
          <path
   id="path1041"
   d="M387.1 1083.7c7.9-.5 15.7-1 23.6-1.4 1.9-.1 1.9-3.1 0-3-7.9.5-15.7 1-23.6 1.4-1.9.2-2 3.2 0 3z"
   class="st3" />
        </g>
      </g>
      <g
   id="g1051">
        <g
   id="g1049">
          <path
   id="path1047"
   d="M1144.3 716.3v364.5c0 1.9 3 1.9 3 0V797v-80.7c0-2-3-2-3 0z"
   class="st3" />
        </g>
      </g>
      <g
   id="g1057">
        <g
   id="g1055">
          <path
   id="path1053"
   d="M1170.4 717.5v362c0 1.9 3 1.9 3 0v-282-80c0-1.9-3-1.9-3 0z"
   class="st3" />
        </g>
      </g>
      <g
   id="g1063">
        <g
   id="g1061">
          <path
   id="path1059"
   d="M1147 1081.7c7.9-.5 15.7-1 23.6-1.4 1.9-.1 1.9-3.1 0-3-7.9.5-15.7 1-23.6 1.4-1.9.1-1.9 3.1 0 3z"
   class="st3" />
        </g>
      </g>
      <g
   id="g1069">
        <g
   id="g1067"
   style="fill:#2d88ff;fill-opacity:1">
          <path
   id="path1065"
   d="M484.2 717.7v235.5c0 1.9 3 1.9 3 0V717.7c0-1.9-3-1.9-3 0z"
   class="st3"
   style="fill:#2d88ff;fill-opacity:1" />
        </g>
      </g>
      <g
   id="g1075"
   style="fill:#2d88ff;fill-opacity:1">
        <g
   id="g1073"
   style="fill:#2d88ff;fill-opacity:1">
          <path
   id="path1071"
   d="M514.1 719.1v234.1c0 1.9 3 1.9 3 0V719.1c0-1.9-3-1.9-3 0z"
   class="st3"
   style="fill:#2d88ff;fill-opacity:1" />
        </g>
      </g>
      <g
   id="g1081"
   style="fill:#2d88ff;fill-opacity:1">
        <g
   id="g1079"
   style="fill:#2d88ff;fill-opacity:1">
          <path
   id="path1077"
   d="M487 956.1h28.6c1.9 0 1.9-3 0-3H487c-1.9 0-1.9 3 0 3z"
   class="st3"
   style="fill:#2d88ff;fill-opacity:1" />
        </g>
      </g>
      <g
   id="g1087"
   style="fill:#2d88ff;fill-opacity:1">
        <g
   id="g1085"
   style="fill:#2d88ff;fill-opacity:1">
          <path
   id="path1083"
   d="M1045 716.4v236.8c0 1.9 3 1.9 3 0V716.4c0-1.9-3-2-3 0z"
   class="st3"
   style="fill:#2d88ff;fill-opacity:1" />
        </g>
      </g>
      <g
   id="g1093"
   style="fill:#2d88ff;fill-opacity:1">
        <g
   id="g1091"
   style="fill:#2d88ff;fill-opacity:1">
          <path
   id="path1089"
   d="M1073.5 719.1v234.1c0 1.9 3 1.9 3 0V719.1c0-1.9-3-1.9-3 0z"
   class="st3"
   style="fill:#2d88ff;fill-opacity:1" />
        </g>
      </g>
      <g
   id="g1099"
   style="fill:#2d88ff;fill-opacity:1">
        <g
   id="g1097"
   style="fill:#2d88ff;fill-opacity:1">
          <path
   id="path1095"
   d="M1047.8 956.1h27.2c1.9 0 1.9-3 0-3h-27.2c-1.9 0-1.9 3 0 3z"
   class="st3"
   style="fill:#2d88ff;fill-opacity:1" />
        </g>
      </g>
    </g>
    <g
   id="mug"
   transform="translate(37.22)">
      <path
   id="path1102"
   fill="#fff"
   d="M945.6 590.9c-1.7 2.2-2.1 4.5-2.3 6.5-2.2 16-1.4 28.1-1.4 28.1.4 6 .8 14.9 1.1 26.3 4.3 4.5 8.4 6.3 11 7.2 7.5 2.5 14.6.8 28.4-2.7 5.6-1.4 10-2.8 13-3.8 2.2-4.1 2.9-7.6 3.1-9.9.4-4.9-1.1-7.2.7-9.7 1.8-2.5 4.4-2 5.6-4.7.7-1.6.6-4-.5-4.9-1.9-1.3-5.3 2.1-7 .7-.5-.4-.5-.8-.7-4.5-.3-5-.4-5.6.2-6.1.5-.6 2.2-.6 5.4-.5 2.4 0 3.5 0 4 .4 1.9 1.5 1.1 6.4-.7 9.9-2.3 4.4-5.8 5.8-5.4 6.7.5.9 4.9 0 8.5-2.2 2.1-1.3 5.2-3.1 5.9-6.5 1.2-5-3.6-9.4-4.3-10.1-5.9-5.5-14.5-3.7-15.6-3.4.1-4.8.2-9.6.4-14.4-12.9-5.7-23.7-7-30.4-7.2-14.1-.5-17.8 3.1-19 4.8z"
   class="st4" />
      <g
   id="g1108">
        <g
   id="g1106">
          <path
   id="path1104"
   fill="#161616"
   d="M941.2 595.4c-1.5 18.4-1.7 36.7-.6 55.1.1 1.9 3.1 1.9 3 0-1.1-18.4-.9-36.8.6-55.1.2-1.9-2.8-1.9-3 0z"
   class="st3" />
        </g>
      </g>
      <g
   id="g1114">
        <g
   id="g1112">
          <path
   id="path1110"
   fill="#161616"
   d="M940.8 651.3c13.4 14.8 34.3 10.2 50.6 3.9 1.8-.7 1-3.6-.8-2.9-15.3 5.9-35.1 10.9-47.7-3.1-1.3-1.4-3.4.7-2.1 2.1z"
   class="st3" />
        </g>
      </g>
      <g
   id="g1120">
        <g
   id="g1118">
          <path
   id="path1116"
   fill="#161616"
   d="M944.1 595.3c3.9-7.1 17.1-7.8 24.3-7.6 8.6.2 16.8 2.5 24.4 6.6 1.7.9 3.2-1.7 1.5-2.6-8.9-4.9-19-7.4-29.2-7-7.7.3-19.4 1.6-23.6 9.1-.9 1.7 1.7 3.2 2.6 1.5z"
   class="st3" />
        </g>
      </g>
      <g
   id="g1126">
        <g
   id="g1124">
          <path
   id="path1122"
   fill="#161616"
   d="M993.1 594.6v13.5c0 1 1 1.6 1.9 1.4 5-1.1 12.9 0 15.8 4.9 5.7 9.4-5.4 11.4-11.1 15.2-2.5 1.6-2.9 3.3-2.9 6.2 0 6.5 0 14-6.7 17.3-1.7.9-.2 3.4 1.5 2.6 5.9-2.9 7.8-9 8.1-15.2.1-2.8-.8-6 1.4-8.3 1.1-1.1 3.3-1.6 4.7-2.3 3-1.4 5.8-2.9 7.8-5.6 3.8-5.1 1.7-10.4-2.8-14.1-4.7-3.8-10.8-4.9-16.6-3.7.6.5 1.3 1 1.9 1.4v-13.5c-.1-1.7-3.1-1.7-3 .2z"
   class="st3" />
        </g>
      </g>
      <g
   id="g1132">
        <g
   id="g1130">
          <path
   id="path1128"
   fill="#161616"
   d="M995.4 613.5c-.4 3.7-.2 7.4.6 11 .4 1.9 3.3 1.1 2.9-.8-.7-3.4-.9-6.8-.5-10.2.2-1.9-2.8-1.9-3 0z"
   class="st3" />
        </g>
      </g>
      <g
   id="g1138">
        <g
   id="g1136">
          <path
   id="path1134"
   fill="#161616"
   d="M997.7 616.5c1.5-1.3 3.7-2.2 5.7-1.6 1.9.6 3.4 2.8 2.5 4.8-1.3 2.7-5.7 2.7-8.3 2.7-1.9 0-1.9 3 0 3 4.7.1 12.3-1.3 11.5-7.7-.3-2.6-2.4-4.9-4.9-5.7-3.1-.9-6.3.3-8.7 2.4-1.4 1.2.7 3.3 2.2 2.1z"
   class="st3" />
        </g>
      </g>
      <g
   id="g1144">
        <g
   id="g1142">
          <path
   id="path1140"
   fill="#161616"
   d="M952.7 590.6c-2 1.6-5.3.8-5.6 4.2-.3 2.7 2 4.6 4.3 5.1 5.2 1.1 11.6-.2 17-.1 6.4.1 12.9.6 19.3 1.3.8.1 1.5-.8 1.5-1.5 0-1.7 0-1.8-.9-3.3-1-1.6-3.6-.1-2.6 1.5.2.6.3 1.2.5 1.8l1.5-1.5c-7.7-.9-15.4-1.3-23.1-1.3-1.9 0-3.9 0-5.8.1-1.4 0-4.3.8-5.5.2-.6-.9-1.3-1.8-1.9-2.7.5-.1 1.1-.2 1.6-.4.5-.4 1.4-.8 1.9-1.2 1.5-1.3-.7-3.4-2.2-2.2z"
   class="st3" />
        </g>
      </g>
      <path
   id="path1146"
   d="M970.6 586.5c-.4-1.4-8.9-.8-16.6 1.6-4.4 1.3-7.9 3.1-10.3 4.3-.8 11-1.3 22.4-1.6 34.4-.2 8.5-.2 16.8 0 24.9 2.8 2.1 9.6 6.7 19.4 7.5 6.6.5 11.9-.9 15-2l-5.1-58.5c-8-.1-14.3-.8-14.6-2.8-.6-3.1 14.4-7.5 13.8-9.4z"
   class="st5" />
      <path
   id="path1148"
   fill="#4c4c4c"
   d="M944.1 598.7c4.2 13.3 8.6 26.8 13 40.3 2.2 6.8 4.5 13.5 6.7 20.2-2.8-.1-7.3-.6-12.2-2.8-4.2-1.8-7.2-4.2-9.1-5.9a252.46 252.46 0 011.6-51.8z"
   class="st6"
   opacity=".11" />
    </g>
    <g
   id="compuers"
   transform="translate(39.7 -7)">
      <path
   id="path1153"
   fill="#fff"
   d="M320.9 501.7c17.3 44.1 34.5 88.2 51.8 132.3 50.6-30.7 101.2-61.5 151.8-92.2-14.6-35.8-29.1-71.7-43.7-107.5a1212.05 1212.05 0 00-159.9 67.4z"
   class="st4" />
      <path
   id="path1155"
   fill="#fff"
   d="M371.8 635.8a673.1 673.1 0 0062.9 33.8 714.9 714.9 0 0041.9 18.3c23.1-15.6 46.2-31.2 69.2-47 22.7-15.6 45.4-31.2 68-47-28.8-17.1-57.7-34.1-86.5-51.2-51.9 31.1-103.7 62.1-155.5 93.1z"
   class="st4" />
      <g
   id="g1161">
        <g
   id="g1159">
          <path
   id="path1157"
   fill="#161616"
   d="M400 638c43.7-26.4 88.1-52.1 129.7-81.8 1.6-1.1.1-3.7-1.5-2.6-41.6 29.7-86 55.4-129.7 81.8-1.6 1-.1 3.6 1.5 2.6z"
   class="st3" />
        </g>
      </g>
      <g
   id="g1167">
        <g
   id="g1165">
          <path
   id="path1163"
   fill="#161616"
   d="M416.6 648.3c43.7-26.4 88.1-52.1 129.7-81.8 1.6-1.1.1-3.7-1.5-2.6-41.6 29.7-86 55.4-129.7 81.8-1.6 1-.1 3.6 1.5 2.6z"
   class="st3" />
        </g>
      </g>
      <g
   id="g1173">
        <g
   id="g1171">
          <path
   id="path1169"
   fill="#161616"
   d="M436.9 658c43.7-26.4 88.1-52.1 129.7-81.8 1.6-1.1.1-3.7-1.5-2.6-41.6 29.7-86 55.4-129.7 81.8-1.7 1-.2 3.6 1.5 2.6z"
   class="st3" />
        </g>
      </g>
      <g
   id="g1179">
        <g
   id="g1177">
          <path
   id="path1175"
   fill="#161616"
   d="M453.5 668.3c43.7-26.4 88.1-52.1 129.7-81.8 1.6-1.1.1-3.7-1.5-2.6-41.6 29.7-86 55.4-129.7 81.8-1.7 1-.2 3.6 1.5 2.6z"
   class="st3" />
        </g>
      </g>
      <g
   id="g1185">
        <g
   id="g1183">
          <path
   id="path1181"
   fill="#161616"
   d="M413.6 628.6c11 7 22.1 13.9 33.1 20.9 1.6 1 3.1-1.6 1.5-2.6-11-7-22.1-13.9-33.1-20.9-1.6-1-3.1 1.6-1.5 2.6z"
   class="st3" />
        </g>
      </g>
      <g
   id="g1191">
        <g
   id="g1189">
          <path
   id="path1187"
   fill="#161616"
   d="M430.8 618.6c10.3 7.3 20.6 14.5 30.9 21.8 1.6 1.1 3.1-1.5 1.5-2.6-10.3-7.3-20.6-14.5-30.9-21.8-1.5-1.1-3 1.5-1.5 2.6z"
   class="st3" />
        </g>
      </g>
      <g
   id="g1197">
        <g
   id="g1195">
          <path
   id="path1193"
   fill="#161616"
   d="M447.3 608.5c9.9 7.2 19.7 14.6 29.2 22.4 1.5 1.2 3.6-.9 2.1-2.1a652.3 652.3 0 00-29.8-22.8c-1.6-1.3-3.1 1.3-1.5 2.5z"
   class="st3" />
        </g>
      </g>
      <g
   id="g1203">
        <g
   id="g1201">
          <path
   id="path1199"
   fill="#161616"
   d="M464.5 598.7c9.7 6.9 18.9 14.4 27.7 22.4 1.4 1.3 3.5-.8 2.1-2.1-9-8.2-18.4-15.8-28.3-22.9-1.6-1.1-3.1 1.5-1.5 2.6z"
   class="st3" />
        </g>
      </g>
      <g
   id="g1209">
        <g
   id="g1207">
          <path
   id="path1205"
   fill="#161616"
   d="M480.3 590.1c9 7.4 17.4 15.3 25.3 23.8 1.3 1.4 3.4-.7 2.1-2.1-7.9-8.5-16.4-16.4-25.3-23.8-1.4-1.2-3.6.9-2.1 2.1z"
   class="st3" />
        </g>
      </g>
      <g
   id="g1215">
        <g
   id="g1213">
          <path
   id="path1211"
   fill="#161616"
   d="M492.8 580.3c9.8 7.7 18.7 16.2 26.9 25.5 1.3 1.5 3.4-.7 2.1-2.1-8.2-9.3-17.1-17.8-26.9-25.5-1.4-1.2-3.6.9-2.1 2.1z"
   class="st3" />
        </g>
      </g>
      <g
   id="g1221">
        <g
   id="g1219">
          <path
   id="path1217"
   fill="#161616"
   d="M508.4 569.6c9.6 7.7 19 15.7 27.9 24.1 1.4 1.3 3.5-.8 2.1-2.1-9-8.4-18.3-16.5-27.9-24.1-1.5-1.2-3.6.9-2.1 2.1z"
   class="st3" />
        </g>
      </g>
      <g
   id="g1227">
        <g
   id="g1225">
          <path
   id="path1223"
   fill="#161616"
   d="M521.6 562.2c5.3 3 9.5 7.8 13.9 12 4.3 4.1 8.5 8.2 12.8 12.3 1.4 1.3 3.5-.8 2.1-2.1-4.7-4.5-9.4-9.1-14.1-13.6-4.1-4-8.1-8.3-13.1-11.2-1.8-.9-3.3 1.7-1.6 2.6z"
   class="st3" />
        </g>
      </g>
      <g
   id="g1233">
        <g
   id="g1231">
          <path
   id="path1229"
   fill="#161616"
   d="M398 638.2c11.7 7.6 23.9 14.4 36.5 20.4 1.7.8 3.3-1.8 1.5-2.6-12.6-6-24.7-12.9-36.5-20.4-1.6-1-3.1 1.6-1.5 2.6z"
   class="st3" />
        </g>
      </g>
      <g
   id="g1239">
        <g
   id="g1237">
          <path
   id="path1235"
   fill="#161616"
   d="M529.5 557l1.2.3c.8.2 1.7-.2 1.8-1 .2-.8-.2-1.6-1-1.8l-1.2-.3c-.8-.2-1.7.2-1.8 1-.3.7.2 1.6 1 1.8z"
   class="st3" />
        </g>
      </g>
      <g
   id="g1245">
        <g
   id="g1243">
          <path
   id="path1241"
   fill="#161616"
   d="M529.2 556.8c12.6 5.6 23.5 14.2 35.7 20.5 1.7.9 3.2-1.7 1.5-2.6-12.2-6.3-23.1-14.9-35.7-20.5-1.7-.8-3.3 1.8-1.5 2.6z"
   class="st3" />
        </g>
      </g>
      <g
   id="g1251">
        <g
   id="g1249">
          <path
   id="path1247"
   fill="#161616"
   d="M433.2 658.5c6.2 3.1 12.2 6.6 17.9 10.5 1.6 1.1 3.1-1.5 1.5-2.6-5.8-3.9-11.7-7.4-17.9-10.5-1.7-.9-3.2 1.7-1.5 2.6z"
   class="st3" />
        </g>
      </g>
      <g
   id="g1257">
        <g
   id="g1255">
          <path
   id="path1253"
   fill="#161616"
   d="M447.6 650.1c4.6 3.4 9 7.1 13.2 11.1 1.4 1.3 3.5-.8 2.1-2.1-4.3-4.2-8.9-8-13.8-11.6-1.5-1.2-3 1.4-1.5 2.6z"
   class="st3" />
        </g>
      </g>
      <g
   id="g1263">
        <g
   id="g1261">
          <path
   id="path1259"
   fill="#161616"
   d="M462 641c5 3.7 9.6 7.8 13.8 12.3 1.3 1.4 3.4-.7 2.1-2.1-4.4-4.7-9.2-9-14.4-12.8-1.5-1.1-3 1.5-1.5 2.6z"
   class="st3" />
        </g>
      </g>
      <g
   id="g1269">
        <g
   id="g1267">
          <path
   id="path1265"
   fill="#161616"
   d="M477.1 631.4c4.2 4 8.2 8.2 12.1 12.4 1.3 1.4 3.4-.7 2.1-2.1-3.9-4.3-7.9-8.4-12.1-12.4-1.4-1.4-3.5.7-2.1 2.1z"
   class="st3" />
        </g>
      </g>
      <g
   id="g1275">
        <g
   id="g1273">
          <path
   id="path1271"
   fill="#161616"
   d="M518.8 605c4 4.7 8 9.5 12.1 14.2 1.2 1.5 3.4-.7 2.1-2.1-4-4.7-8-9.5-12.1-14.2-1.3-1.5-3.4.7-2.1 2.1z"
   class="st3" />
        </g>
      </g>
      <g
   id="g1281">
        <g
   id="g1279">
          <path
   id="path1277"
   fill="#161616"
   d="M536.5 594.4c4 4.2 7.8 8.6 11.6 13 1.3 1.5 3.4-.7 2.1-2.1-3.8-4.4-7.6-8.8-11.6-13-1.3-1.4-3.4.7-2.1 2.1z"
   class="st3" />
        </g>
      </g>
      <g
   id="g1287">
        <g
   id="g1285">
          <path
   id="path1283"
   fill="#161616"
   d="M548.2 586.6c6.4 3 12.7 5.9 19.1 8.9 1.7.8 3.3-1.8 1.5-2.6-6.4-3-12.7-5.9-19.1-8.9-1.7-.8-3.3 1.8-1.5 2.6z"
   class="st3" />
        </g>
      </g>
      <g
   id="g1293">
        <g
   id="g1291">
          <path
   id="path1289"
   fill="#161616"
   d="M564.6 576.5c5.6 3.5 11.3 6.8 17.1 9.8 1.7.9 3.2-1.7 1.5-2.6-5.8-3-11.5-6.3-17.1-9.8-1.6-1.1-3.1 1.5-1.5 2.6z"
   class="st3" />
        </g>
      </g>
      <path
   id="path1295"
   fill="#fff"
   d="M654.3 372.9c-1.2 11.1-2.2 22.5-2.8 34.4-2.5 48.6 1.6 92.5 8.4 130.3 21.1-.1 38.1-.4 48.8-.7 73.4-1.8 105.2-6.1 170.6-6.3 16.6 0 29.9.2 37.6.4 2.6-10.4 4.9-21.4 6.7-33 8.1-52.8 3-99.4-4.9-135.5-13.6-2.6-33.7-5.7-58.3-7-16.1-.8-20.6-.2-85.3 2.8-46 2.1-58.3 2.5-79.7 6-17.4 2.6-31.6 6-41.1 8.6z"
   class="st4" />
      <g
   id="g1349">
        <g
   id="g1347">
          <path
   id="path1345"
   fill="#161616"
   d="M319.4 503.5c17.4 44.8 34.8 89.5 52.2 134.3.7 1.8 3.6 1 2.9-.8-17.4-44.8-34.8-89.5-52.2-134.3-.7-1.8-3.6-1-2.9.8z"
   class="st3" />
        </g>
      </g>
      <g
   id="g1355">
        <g
   id="g1353">
          <path
   id="path1351"
   fill="#161616"
   d="M371 638.8c34 18.5 68.8 35.5 104.2 51.1 1.8.8 3.3-1.8 1.5-2.6-35.4-15.6-70.2-32.7-104.2-51.1-1.7-.9-3.2 1.6-1.5 2.6z"
   class="st3" />
        </g>
      </g>
      <g
   id="g1361">
        <g
   id="g1359">
          <path
   id="path1357"
   fill="#161616"
   d="M477.2 690.1l136.9-94.3c1.6-1.1.1-3.7-1.5-2.6l-136.9 94.3c-1.6 1.1-.1 3.7 1.5 2.6z"
   class="st3" />
        </g>
      </g>
      <g
   id="g1367">
        <g
   id="g1365">
          <path
   id="path1363"
   fill="#161616"
   d="M320.7 503.2c52-25.9 105.6-48.5 160.5-67.7 1.8-.6 1-3.5-.8-2.9-55.1 19.3-108.9 42-161.2 68-1.8.9-.3 3.4 1.5 2.6z"
   class="st3" />
        </g>
      </g>
      <g
   id="g1373">
        <g
   id="g1371">
          <path
   id="path1369"
   fill="#161616"
   d="M373.6 636.7c50.5-30.9 101.1-61.8 151.6-92.7 1.6-1 .1-3.6-1.5-2.6-50.5 30.9-101.1 61.8-151.6 92.7-1.6 1-.1 3.6 1.5 2.6z"
   class="st3" />
        </g>
      </g>
      <g
   id="g1379">
        <g
   id="g1377">
          <path
   id="path1375"
   fill="#161616"
   d="M479.2 435.1c14.7 35.5 29.3 71 44 106.4.7 1.8 3.6 1 2.9-.8-14.7-35.5-29.3-71-44-106.4-.7-1.8-3.6-1-2.9.8z"
   class="st3" />
        </g>
      </g>
      <g
   id="g1385">
        <g
   id="g1383">
          <path
   id="path1381"
   fill="#161616"
   d="M525.3 543.3c29.4 16.8 58.8 33.7 88.1 50.5 1.7 1 3.2-1.6 1.5-2.6-29.4-16.8-58.8-33.7-88.1-50.5-1.7-.9-3.2 1.7-1.5 2.6z"
   class="st3" />
        </g>
      </g>
      <g
   id="g1391">
        <g
   id="g1389">
          <path
   id="path1387"
   fill="#161616"
   d="M651.5 373.6c-4.1 54.5 1.1 109.1 6.4 163.3.2 1.9 3.2 1.9 3 0-5.3-54.3-10.5-108.8-6.4-163.3.2-1.9-2.8-1.9-3 0z"
   class="st3" />
        </g>
      </g>
      <g
   id="g1397">
        <g
   id="g1395">
          <path
   id="path1393"
   fill="#161616"
   d="M653.9 374.9c31.8-11.6 66.1-12.4 99.5-14.4 34.7-2.1 69.5-4.8 104.2-3.8 20.4.6 40.7 2.5 60.8 6.6 1.9.4 2.7-2.5.8-2.9-34.6-7.1-69.9-7.7-105-6.3-35.4 1.4-71.1 3.1-106.3 6.5-18.6 1.8-37.1 4.9-54.8 11.3-1.8.8-1 3.7.8 3z"
   class="st3" />
        </g>
      </g>
      <g
   id="g1403">
        <g
   id="g1401">
          <path
   id="path1399"
   fill="#161616"
   d="M918.4 362c10.2 55.4 9.5 112.5-2.2 167.7.5-.4 1-.7 1.4-1.1-66.8 2.2-133.5 4.3-200.3 6.5l-56.8 1.8c-1.9.1-1.9 3.1 0 3 66.8-2.2 133.5-4.3 200.3-6.5l56.8-1.8c.6 0 1.3-.4 1.4-1.1a438.44 438.44 0 002.2-169.3c-.3-1.9-3.2-1.1-2.8.8z"
   class="st3" />
        </g>
      </g>
      <g
   id="g1477">
        <g
   id="g1475">
          <path
   id="path1473"
   fill="#e8e8e8"
   d="M329.2 506.2c15.4 36.7 29.8 73.8 43.4 111.2.7 1.8 3.6 1 2.9-.8-13.6-37.4-28-74.5-43.4-111.2-.8-1.8-3.7-1-2.9.8z"
   class="st2" />
        </g>
      </g>
      <g
   id="g1483">
        <g
   id="g1481">
          <path
   id="path1479"
   fill="#e8e8e8"
   d="M331 505.4c47.6-19.5 95.2-39.1 142.5-59.3 1.8-.8.2-3.3-1.5-2.6-47.1 20.1-94.4 39.6-141.8 59-1.8.8-1 3.7.8 2.9z"
   class="st2" />
        </g>
      </g>
      <g
   id="g1489">
        <g
   id="g1487">
          <path
   id="path1485"
   fill="#e8e8e8"
   d="M473.2 445.3c14 29.9 27 60.2 39.1 90.8.7 1.8 3.6 1 2.9-.8a1608.1 1608.1 0 00-39.4-91.6c-.8-1.6-3.4-.1-2.6 1.6z"
   class="st2" />
        </g>
      </g>
      <g
   id="g1495">
        <g
   id="g1493">
          <path
   id="path1491"
   fill="#e8e8e8"
   d="M376.2 619.5a2506.88 2506.88 0 00103.2-61c11-6.9 22-13.9 33.9-19.3 1.8-.8.2-3.4-1.5-2.6-11.9 5.4-22.9 12.4-33.9 19.3-11.2 7-22.5 13.9-33.8 20.7-22.9 13.8-46.1 27.2-69.4 40.3-1.7 1-.2 3.6 1.5 2.6z"
   class="st2" />
        </g>
      </g>
      <g
   id="g1501">
        <g
   id="g1499">
          <path
   id="path1497"
   fill="#5222d0"
   d="M387.8 528.6c-6.6-4-13.2 2.9-17 7.8-4.6 5.9-5.8 13-3 20 2.5 6.1 8.1 12.2 15.2 11.8 8.4-.5 13.4-7.9 17.2-14.5 1-1.7-1.6-3.2-2.6-1.5-2.7 4.7-5.7 9.9-11 12-6.3 2.6-11.9-1.2-15-6.7-2.4-4.2-3.2-9.4-1.6-14.1 1.6-4.5 10.2-15.8 16.2-12.2 1.7 1 3.3-1.6 1.6-2.6z"
   class="st1" />
        </g>
      </g>
      <g
   id="g1507">
        <g
   id="g1505">
          <path
   id="path1503"
   fill="#5222d0"
   d="M423.4 512.3c0-4.6-4.7-3.3-7.2-1.4-4 3-8.8 9.8-9.5 14.8-.8 6.3 6.1 5.1 10.4 4.7 5.4-.5 13 1.5 8.8 8.7-2.7 4.6-8.2 6.7-13.2 6.9-1.9.1-1.9 3.1 0 3 7.6-.4 21.7-7.6 16.6-17.4-2.2-4.1-7.1-4.7-11.3-4.4-1.1.1-4.2.9-5.3.5-4-1.5-1.8-4.7-.8-6.6.7-1.3 1.4-2.7 2.3-3.9.3-.4 6.1-6.2 6.1-5 .1 2.1 3.1 2.1 3.1.1z"
   class="st1" />
        </g>
      </g>
      <g
   id="g1513">
        <g
   id="g1511">
          <path
   id="path1509"
   fill="#5222d0"
   d="M461.6 489.7c-4.9-1.9-9.3 2.3-12.2 5.8-2.4 2.8-6.7 8.5-5.2 12.6 1.6 4.4 8.4 2.4 11.6 2 1.7-.2 3.6-.5 5.3-.2 4.5.6 6.1 5.2 4 8.9-2.5 4.4-7.4 5.8-12 6.4-1.9.3-1.1 3.2.8 2.9 7.4-1.1 20.4-8.6 14-17.9-3.1-4.5-9.3-3.4-13.8-2.9-1 .1-4.7 1.1-5.3.4-1.5-1.5-.6-5 .3-6.6 2-3.4 6.9-10.5 11.8-8.6 1.7.8 2.5-2.1.7-2.8z"
   class="st1" />
        </g>
      </g>
      <g
   id="g1519">
        <g
   id="g1517">
          <path
   id="path1515"
   fill="#e8e8e8"
   d="M464 556.4c7.5-4.8 15.1-9.7 22.6-14.5 1.6-1 .1-3.6-1.5-2.6-7.5 4.8-15.1 9.7-22.6 14.5-1.6 1.1-.1 3.7 1.5 2.6z"
   class="st2" />
        </g>
      </g>
      <g
   id="g1525">
        <g
   id="g1523">
          <path
   id="path1521"
   fill="#e8e8e8"
   d="M493 538.6c1.9-.9 3.8-1.8 5.8-2.7 1.7-.8.2-3.4-1.5-2.6-1.9.9-3.8 1.8-5.8 2.7-1.8.8-.2 3.4 1.5 2.6z"
   class="st2" />
        </g>
      </g>
      <g
   id="g1531">
        <g
   id="g1529">
          <path
   id="path1527"
   fill="#e8e8e8"
   d="M446.9 463.6c.1-.2.1-.4.2-.7 0-.1.1-.1.1-.2.2-.1.4-.3.7-.4-.3.1.6.1.7.1.3.1.3.3.4.5.1.2 0-.2 0 0-.1.3 0-.2 0 0 0 .1 0 .1 0 0l-.1.1c-.1 0-.2.1-.2.1-.2.1-.1-.1 0 0h-.1c.1 0 .1 0 0 0 0-.1 0 .1 0 0 0 0-.1 0-.1-.1-.1-.1 0-.1 0 .1 0-.1 0-.1 0 0 0 0-.1-.3 0-.3 0 0-.1.2-.1.3.1-.3-.1.1 0-.1l.1-.1c-.1.1.2 0 .2 0 .1 0 .2 0 .2.1.1 0 .1.1 0 0 0 0 .1.3.1.1v.4c-.1.3-.4.4-.6.4h-.1c.2.1 0 0-.1 0 .2.1-.1-.1-.1-.1-.1-.2-.1-.3-.1-.5 0-.3 0-.4.3-.6l.1-.1c.1 0 .1-.1.2-.1h.1.1c-.2-.1.1.1.2.1.2.1.4.5.4.7 0-.8-.7-1.5-1.5-1.5s-1.5.7-1.5 1.5c0 2.8 4.5 2.8 4.6.1.1-2.7-4.2-3.2-4.8-.6-.3 1.3.6 2.7 1.9 3.1 1.2.3 2.5-.3 3-1.4.6-1.1.4-2.5-.5-3.4-.9-.9-2.4-1.2-3.5-.5a2.7 2.7 0 00-.9 3.6c.4.6 1.1 1.1 1.8 1.1.9 0 1.8-.8 1.8-1.8-.1-.8-.6-1.5-1.5-1.5-.6.1-1.4.8-1.4 1.6z"
   class="st2" />
        </g>
      </g>
      <g
   id="g1537">
        <g
   id="g1535">
          <path
   id="path1533"
   fill="#e8e8e8"
   d="M460.5 457.6c.8-.2 1.1 1.1.3 1.2-.1 0-.4-.1-.3-.1.1.1-.2-.2 0 0-.2-.2-.1-.1 0 .1 0-.1 0-.1-.1-.2 0 .1 0 .1 0 0s0-.1 0 0v-.1c0-.1.1-.3.2-.4.1-.1.3-.1.4-.2-.4 0 .3 0 0 0 .1 0 .1 0 .2.1-.1-.1-.1-.1 0 0s.1.1 0 0l.1.1c-.1-.3.1.3 0 0 0 .1 0 .5.1.3l-1 1c.2-.1.5-.2.7-.2-.2 0 .2 0 0 0-.1 0-.1 0 0 0s.1 0 0 0c-.1-.1-.2-.1-.3-.3 0-.1-.1-.4-.1-.3 0 .2.1-.3 0-.1.1-.4.5-.7.9-.7-.8 0-1.5.7-1.5 1.5s.7 1.5 1.5 1.5c2.3 0 2.8-3.2.9-4.3-.9-.5-2-.4-3 0-1.2.5-1.4 1.9-.8 3 1 1.8 3.9 2 4.6-.2.6-1.8-1.1-3.8-3-3.5-1.3.2-2.2 1.7-1.9 2.9.3 1.3 1.7 2.1 2.9 1.7.8-.2 1.3-1.1 1-1.8-.2-.7-1-1.2-1.8-1z"
   class="st2" />
        </g>
      </g>
      <g
   id="g1543">
        <g
   id="g1541">
          <path
   id="path1539"
   fill="#e8e8e8"
   d="M660.4 378.9c.8 50.1 3.4 100.1 8 150 .2 1.9 3.2 1.9 3 0-4.5-49.9-7.2-99.9-8-150 0-2-3-2-3 0z"
   class="st2" />
        </g>
      </g>
      <g
   id="g1549">
        <g
   id="g1547">
          <path
   id="path1545"
   fill="#e8e8e8"
   d="M663.9 380.5c20.5-3.6 41.3-4.3 62-5.2 20.1-.8 40.3-1.6 60.4-2.3 40.6-1.5 81.2-2.7 121.8-3.8 1.9 0 1.9-3 0-3-41.3 1.1-82.5 2.3-123.8 3.8-20.5.7-40.9 1.5-61.4 2.4-20 .8-40 1.7-59.8 5.2-1.8.3-1 3.2.8 2.9z"
   class="st2" />
        </g>
      </g>
      <g
   id="g1555">
        <g
   id="g1553">
          <path
   id="path1551"
   fill="#e8e8e8"
   d="M907.6 368.5c5.6 10.7 5.3 23.1 5.6 34.8a1190.36 1190.36 0 01-2.5 109.7c-.1 1.9 2.9 1.9 3 0a1235.15 1235.15 0 002.4-114.6c-.3-10.8-.7-21.6-5.9-31.4-.9-1.7-3.5-.2-2.6 1.5z"
   class="st2" />
        </g>
      </g>
      <g
   id="g1561">
        <g
   id="g1559">
          <path
   id="path1557"
   fill="#e8e8e8"
   d="M670.6 529.3c78.8-14.6 159.8-12.7 239.5-14 1.9 0 1.9-3 0-3-80.1 1.3-161.3-.5-240.3 14.1-1.9.4-1.1 3.3.8 2.9z"
   class="st2" />
        </g>
      </g>
      <g
   id="g1567">
        <g
   id="g1565">
          <path
   id="path1563"
   fill="#e8e8e8"
   d="M690.5 387.4c-4 2.7-7.8 5.7-11.4 9-.7.7-.5 1.9.3 2.4 3.6 2.2 8.9 1.7 11.7 5 1.2 1.5 3.3-.6 2.1-2.1-3.1-3.8-8.4-3.1-12.3-5.5l.3 2.4c3.4-3.1 7-5.9 10.8-8.5 1.6-1.2.1-3.8-1.5-2.7z"
   class="st2" />
        </g>
      </g>
      <g
   id="g1573">
        <g
   id="g1571">
          <path
   id="path1569"
   fill="#e8e8e8"
   d="M707 385.9c-4.1 6.1-7.5 12.4-10.4 19.1-.8 1.8 1.8 3.3 2.6 1.5 2.9-6.7 6.3-13.1 10.4-19.1 1-1.6-1.6-3.1-2.6-1.5z"
   class="st2" />
        </g>
      </g>
      <g
   id="g1579">
        <g
   id="g1577">
          <path
   id="path1575"
   fill="#e8e8e8"
   d="M712.9 397.6c4.6-.6 9.3-.7 13.9-.3 1.9.2 1.9-2.8 0-3-4.7-.4-9.3-.3-13.9.3-1.9.2-2 3.2 0 3z"
   class="st2" />
        </g>
      </g>
      <g
   id="g1585">
        <g
   id="g1583">
          <path
   id="path1581"
   fill="#e8e8e8"
   d="M730.2 386.8c3.6 5 10.2 5.4 14.3 9.7l.3-2.4a61.8 61.8 0 00-12 8.8c-1.4 1.3.7 3.4 2.1 2.1 3.5-3.2 7.3-6 11.4-8.3.9-.5 1-1.7.3-2.4-3.9-4-10.6-4.5-13.9-9.1-1.1-1.4-3.7.1-2.5 1.6z"
   class="st2" />
        </g>
      </g>
      <g
   id="g1591">
        <g
   id="g1589">
          <path
   id="path1587"
   fill="#e8e8e8"
   d="M669.9 423.6l12.3-.9c1.9-.1 1.9-3.1 0-3l-12.3.9c-1.9.2-1.9 3.2 0 3z"
   class="st2" />
        </g>
      </g>
      <g
   id="g1597">
        <g
   id="g1595">
          <path
   id="path1593"
   fill="#e8e8e8"
   d="M691.8 422c27.7-1.6 55.4-3.3 83.1-4.9 1.9-.1 1.9-3.1 0-3-27.7 1.6-55.4 3.3-83.1 4.9-1.9.1-2 3.1 0 3z"
   class="st2" />
        </g>
      </g>
      <g
   id="g1603">
        <g
   id="g1601">
          <path
   id="path1599"
   fill="#e8e8e8"
   d="M671.5 435.6h6.8c1.9 0 1.9-3 0-3h-6.8c-2 0-2 3 0 3z"
   class="st2" />
        </g>
      </g>
      <g
   id="g1609">
        <g
   id="g1607">
          <path
   id="path1605"
   fill="#e8e8e8"
   d="M686.6 434.4c2.7.2 5.4-.1 8-.8 1.9-.5 1.1-3.4-.8-2.9-2.4.6-4.7.8-7.2.6-1.9 0-1.9 3 0 3.1z"
   class="st2" />
        </g>
      </g>
      <g
   id="g1615">
        <g
   id="g1613">
          <path
   id="path1611"
   fill="#e8e8e8"
   d="M711.2 432.3c26.3-2.5 52.7-3.2 79.2-2.1 1.9.1 1.9-2.9 0-3-26.4-1.1-52.8-.4-79.2 2.1-1.9.1-1.9 3.1 0 3z"
   class="st2" />
        </g>
      </g>
      <g
   id="g1621">
        <g
   id="g1619">
          <path
   id="path1617"
   fill="#e8e8e8"
   d="M675.2 450.6a63.1 63.1 0 01-5.5 6.1c-.8.8-.4 2.2.7 2.5 3.1.9 6.3 1.3 9.5 1.4 1.9 0 1.9-3 0-3-3 0-5.8-.4-8.7-1.3.2.8.4 1.7.7 2.5 2-1.9 3.8-3.9 5.5-6.1 1.1-1.5-1.1-3.7-2.2-2.1z"
   class="st2" />
        </g>
      </g>
      <g
   id="g1627">
        <g
   id="g1625">
          <path
   id="path1623"
   fill="#e8e8e8"
   d="M685.4 456.5a204 204 0 0141.3-3.6c1.9 0 1.9-3 0-3-14.2-.3-28.2 1-42.1 3.7-1.8.4-1 3.2.8 2.9z"
   class="st2" />
        </g>
      </g>
      <g
   id="g1633">
        <g
   id="g1631">
          <path
   id="path1629"
   fill="#e8e8e8"
   d="M730.8 449c4.9 2.5 10.8.8 15.5 3.5.1-.9.2-1.8.4-2.7-2.8.9-5.3 2.2-7.7 3.9-1.6 1.1-.1 3.7 1.5 2.6 2.2-1.5 4.4-2.7 7-3.6 1.2-.4 1.5-2.1.4-2.7-4.8-2.9-10.6-1-15.5-3.5-1.8-1-3.3 1.6-1.6 2.5z"
   class="st2" />
        </g>
      </g>
      <g
   id="g1639">
        <g
   id="g1637">
          <path
   id="path1635"
   fill="#e8e8e8"
   d="M863.2 378.8c-2.4.4-3.9 2-4.4 4.4-.3 1.6.2 3.2.5 4.7 1 4.4.4 6.6-3.6 9-1.2.8-.8 2.8.8 2.8 4.2-.1 2.7 19.3 11.6 12.8 1.6-1.1.1-3.7-1.5-2.6-4.1 2.9-3.8-6.6-4-7.6-.2-1.1-.5-2.1-1-3-1.2-1.9-2.8-2.7-5.1-2.6.3.9.5 1.9.8 2.8 2.3-1.4 4.7-3 5.6-5.7.8-2.4-2.6-11.4 1.2-12.1 1.8-.3 1-3.2-.9-2.9z"
   class="st2" />
        </g>
      </g>
      <g
   id="g1645">
        <g
   id="g1643">
          <path
   id="path1641"
   fill="#e8e8e8"
   d="M882.7 380c3.4-.5 4.7 1.5 4.1 6.2-.3.6-.6 1.1-.9 1.7-.2 1-.6 1.7-.6 2.8 0 2.1 1.4 2.5 2.1 4.1.6 1.5-.1 1.3-.3 3.2-.6 4 4.9 7.3-.3 10.9-1.6 1.1-.1 3.7 1.5 2.6 2.2-1.5 3.8-3.7 3.8-6.5 0-1.1-.5-2.1-.8-3.1-.6-2.5-.2-4.3.5-6.7.1-.5 0-1.1-.4-1.5-.3-.2-1.1-.8-1.4-1.1-2.4-2.4-.8-3.6.3-6.3.6-1.6 1.1-2.9.6-4.6-.9-3.6-4.7-4.8-8-4.7-2.1 0-2.1 3-.2 3z"
   class="st2" />
        </g>
      </g>
      <g
   id="g1651">
        <g
   id="g1649">
          <path
   id="path1647"
   fill="#e8e8e8"
   d="M773.3 396c15.8-1.3 31.5-2.5 47.3-3.8 1.9-.2 1.9-3.2 0-3-15.8 1.3-31.5 2.5-47.3 3.8-1.9.1-1.9 3.1 0 3z"
   class="st2" />
        </g>
      </g>
      <g
   id="g1657">
        <g
   id="g1655">
          <path
   id="path1653"
   fill="#e8e8e8"
   d="M841.3 391.2c3.6.5 7.2.4 10.7-.2 1.9-.3 1.1-3.2-.8-2.9-3.3.5-6.6.5-9.9.1-1.9-.3-1.9 2.7 0 3z"
   class="st2" />
        </g>
      </g>
      <g
   id="g1663">
        <g
   id="g1661">
          <path
   id="path1659"
   fill="#e8e8e8"
   d="M681 477.3c26.5-1.7 53-3.5 79.5-5.2 1.9-.1 1.9-3.1 0-3-26.5 1.7-53 3.5-79.5 5.2-1.9.1-1.9 3.1 0 3z"
   class="st2" />
        </g>
      </g>
      <g
   id="g1669">
        <g
   id="g1667">
          <path
   id="path1665"
   fill="#e8e8e8"
   d="M777.7 470c10.1-1 20.1-1.9 30.2-2.8 1.9-.2 1.9-3.2 0-3-10.1.8-20.2 1.8-30.2 2.8-1.9.2-1.9 3.2 0 3z"
   class="st2" />
        </g>
      </g>
      <g
   id="g1675">
        <g
   id="g1673">
          <path
   id="path1671"
   fill="#e8e8e8"
   d="M830.6 466.1c19.7-2 39.5-3.5 59.2-4.4 1.9-.1 1.9-3.1 0-3-19.8 1-39.5 2.4-59.2 4.4-1.9.2-1.9 3.2 0 3z"
   class="st2" />
        </g>
      </g>
      <g
   id="g1681">
        <g
   id="g1679">
          <path
   id="path1677"
   fill="#e8e8e8"
   d="M692.8 487.2l-11.2 7.9c-1 .7-1 2.4.4 2.7 3.9 1 7.8 1.8 11.8 2.4 1.9.3 2.7-2.6.8-2.9-4-.6-7.9-1.4-11.8-2.4.1.9.2 1.8.4 2.7l11.2-7.9c1.5-1.1 0-3.7-1.6-2.5z"
   class="st2" />
        </g>
      </g>
      <g
   id="g1687">
        <g
   id="g1685">
          <path
   id="path1683"
   fill="#e8e8e8"
   d="M708.1 485.5c-4.3 5-8.3 10.2-11.9 15.8-1.1 1.6 1.5 3.1 2.6 1.5 3.4-5.3 7.2-10.4 11.4-15.2 1.3-1.4-.8-3.6-2.1-2.1z"
   class="st2" />
        </g>
      </g>
      <g
   id="g1693">
        <g
   id="g1691">
          <path
   id="path1689"
   fill="#e8e8e8"
   d="M717 489.8c1.3 1 2.7 1.5 4.1 2 .9.3 1.8.5 2.7.8.5.2 1.1.5 1.5.8-.1-.7-.4-.9-.9-.6-1.3-.1-3.8 1.5-5 2.1-1.9.9-3.6 2.1-5.3 3.3-1.5 1.1 0 3.7 1.5 2.6 2.2-1.7 4.6-3.1 7.2-4.2 1.6-.7 5-1 5.5-3.1.4-1.8-1.6-2.8-2.9-3.4-2.3-1-4.9-1.3-7-2.8-1.4-1.2-2.9 1.4-1.4 2.5z"
   class="st2" />
        </g>
      </g>
      <g
   id="g1699">
        <g
   id="g1697">
          <path
   id="path1695"
   fill="#e8e8e8"
   d="M750.3 494c12.3-1 24.6-2.3 36.9-1.6 1.9.1 1.9-2.9 0-3-12.4-.7-24.6.6-36.9 1.6-2 .1-2 3.1 0 3z"
   class="st2" />
        </g>
      </g>
      <g
   id="g1705">
        <g
   id="g1703">
          <path
   id="path1701"
   fill="#e8e8e8"
   d="M813.9 489.5c23.1-2.7 46.3-3.7 69.6-3.2 1.9 0 1.9-3 0-3-23.2-.5-46.5.6-69.6 3.2-1.9.2-1.9 3.2 0 3z"
   class="st2" />
        </g>
      </g>
      <path
   id="path1709"
   fill="#4c4c4c"
   d="M379.7 474.1c-3.3 9-7.3 22.1-9.2 38.2-2.3 19.9-8.2 70.7 18.4 86.2 18.2 10.6 47.2 2.2 71.7-17.8 4.2 3.4 8.5 6.7 12.7 10.1l-74.7 45.3c17.6 10.5 35.2 20.9 52.7 31.4 19-11.3 37.9-22.5 56.9-33.8 9.6 4.7 19.2 9.5 28.7 14.2-19.9 14-39.7 28-59.6 42.1-34.7-17.3-69.3-34.6-104-51.9-17.6-45.7-35.2-91.5-52.7-137.2 19.8-8.8 39.5-17.8 59.1-26.8z"
   class="st8"
   opacity=".12" />
      <path
   id="path1715"
   d="M858 355.8c3.5 6.5 7.9 16.3 9.7 28.8 4.5 30.2-9 54.3-18.3 70.5-28 48.5-74.7 71.8-95.5 80.7 43.4-.3 88-1.6 133.6-4.3 10.2-.6 20.3-1.2 30.4-1.9 4.4-19.4 8-42.3 9.4-68.2 2-39.6-2.1-73.8-7.4-100.1a11869 11869 0 00-61.9-5.5z"
   class="st5" />
    </g>
  </g>
  <g
   id="guy__x26__chair">
    <g
   id="leg_right">
      <path
   id="path1719"
   d="M830 992.2c1 6.8 1.9 13.9 2.7 21.3.9 8.5 1.4 16.7 1.8 24.5.8 1.5 2.2 3.5 4.5 5.1 3.6 2.5 7.5 2.5 11.7 2.4 12.2-.3 18.3-.4 21-.9 9.5-1.9 18.5-3.6 20.4-9.6 1.3-4-1.3-8.4-1.5-8.7-1.5-2.5-3.5-3.6-6.9-5.4a29.7 29.7 0 00-11.7-3.9c-4.7-.5-8.6.2-11.1.9l-3.9-31.7-27 6z" />
      <path
   id="path1721"
   d="M811.9 794.3c-8.1 8.8-5.6 18.2-8.9 74.9-1.3 22.8-1.8 21.7-2.2 35.4-1.1 31.3.6 52.9 1.6 63.4.7 7.9 1.6 14.5 2.2 19.1 5.9 3 16 7 28.4 5.7 7.3-.7 12.8-3.1 16.9-4.8 9-3.8 15.6-8.8 19.8-12.4l-5.1-189.3c-35.3-6.7-48 2.9-52.7 8z"
   class="st4" />
      <g
   id="g1727">
        <g
   id="g1725">
          <path
   id="path1723"
   d="M805 802.6c-5.6 60.7-6.3 121.8-2.1 182.7.1 1.9 3.1 1.9 3 0-4.2-60.8-3.5-122 2.1-182.7.2-1.9-2.8-1.9-3 0z"
   class="st3" />
        </g>
      </g>
      <g
   id="g1733">
        <g
   id="g1731">
          <path
   id="path1729"
   d="M804.4 988.2c22.2 11.5 47.7 4.9 65.5-11.4 1.4-1.3-.7-3.4-2.1-2.1-16.8 15.4-40.9 21.8-61.9 11-1.7-1-3.2 1.6-1.5 2.5z"
   class="st3" />
        </g>
      </g>
      <g
   id="g1739">
        <g
   id="g1737">
          <path
   id="path1735"
   d="M862.3 788.9l4.8 185.4c.1 1.9 3.1 1.9 3 0l-4.8-185.4c0-1.9-3-1.9-3 0z"
   class="st3" />
        </g>
      </g>
      <g
   id="g1745">
        <g
   id="g1743">
          <path
   id="path1741"
   d="M828.7 993.5c2.4 12.1 3.9 24.3 4.5 36.6.1 1.9 3.1 1.9 3 0-.6-12.6-2.1-25.1-4.6-37.4-.4-1.9-3.3-1.1-2.9.8z"
   class="st3" />
        </g>
      </g>
      <g
   id="g1751">
        <g
   id="g1749">
          <path
   id="path1747"
   d="M855.5 986c.6 13.1 1.8 26.1 3.6 39.1.3 1.9 3.2 1.1 2.9-.8-1.8-12.7-3-25.5-3.5-38.3-.1-1.9-3.1-1.9-3 0z"
   class="st3" />
        </g>
      </g>
      <g
   id="g1757">
        <g
   id="g1755">
          <path
   id="path1753"
   d="M860.6 1018.5c10.8-1.4 21.4 1.8 29.5 9.1 1.4 1.3 3.6-.8 2.1-2.1-8.7-7.8-20-11.5-31.6-10-1.9.2-1.9 3.2 0 3z"
   class="st3" />
        </g>
      </g>
      <g
   id="g1763">
        <g
   id="g1761">
          <path
   id="path1759"
   d="M833.2 1029c-.5 6.3-.2 13.9 6.5 16.8 2.6 1.1 5.9 1.2 8.7 1.4 4.8.4 9.6.6 14.4.4 11.5-.6 33.8-5.2 30.5-21.3-.4-1.9-3.3-1.1-2.9.8 2.9 14.2-19.9 17.3-29.4 17.6a98 98 0 01-15.3-.7c-9-1.1-10.1-7-9.5-14.9.1-2-2.9-2-3-.1z"
   class="st3" />
        </g>
      </g>
      <path
   id="path1765"
   d="M807 802c9.8-3.5 19.6-7 29.4-10.4-1.7 32.5-2.1 68-.4 106 1.4 32.4 4.2 62.8 7.7 90.9-2 .9-4.2 1.7-6.6 2.3-13.8 3.6-26.1-1-32.1-3.9-2.8-33.3-4.2-70.1-3.1-109.9.8-26.5 2.6-51.5 5.1-75z"
   class="st6" />
      <path
   id="path1767"
   d="M806.2 804c.4 17.5 1.5 40.2 3.9 66.5 1.9 20.9 4 36.5 4.6 41.4 2.9 21.1 7.3 48.5 14.7 80.5-8.4-1.9-16.8-3.9-25.1-5.8-1.5-32.1-2.2-66.1-1.5-101.8.4-28.1 1.6-55.1 3.4-80.8z"
   class="st11" />
    </g>
    <g
   id="chair">
      <path
   id="path1770"
   d="M784.9 876.6c.6 3.1 1.4 7.6 2.4 13.2 5.9 35.6 5.8 61.2 6.4 82.8.5 18.4 1.7 44.7 5.1 77.4-2.1.9-5.3 2.4-9.1 4.4-9.4 4.9-22 11.5-33.8 23.7-3.5 3.6-8.4 9.2-13.2 16.9 15.9 1.5 34.7 2.2 55.8.7 25.9-1.9 48.3-6.5 66.2-11.5-5.4-4.6-11.4-9.2-17.9-13.9a276.9 276.9 0 00-35.1-21c-2.4-23.3-4.3-47.8-5.4-73.3-1.7-39.4-1.5-76.5 0-110.9-7.2 3.9-14.3 7.7-21.4 11.5z"
   style="fill:#2d88ff;fill-opacity:1" />
      <path
   id="path1772"
   d="M710.9 828c0-4.6 5.3-8.5 15.9-16.2 5-3.7 18.8-13 41.9-18.3 20.3-4.6 35.9-3.3 54.8-1.7 26.9 2.3 39.3 7.7 42.6 9.1 9.8 4.4 17.2 9.6 22 13.5-1.7 6.1-5.1 14.7-12.2 22.6-4.9 5.6-18.3 18.4-55.4 21.3-51.5 4.2-109.7-13.6-109.6-30.3z"
   class="st4" />
      <path
   id="path1774"
   d="M713.9 822.2c-1.3 2.8-2.5 5.9-3.4 9.5-3.4 12.9-1.5 24.2.3 31.1 5.4 2.5 13.1 5.6 22.6 8.4 29.2 8.7 53 7.5 72.3 6.4 25.4-1.4 41.8-2.6 60.8-12.5a106.1 106.1 0 0023.3-16.6c-.3-10.9-.7-21.9-1-32.8a154.7 154.7 0 01-28.4 14.9c-62 24.8-123.4 1.8-146.5-8.4z"
   style="fill:#2d88ff;fill-opacity:1" />
      <g
   id="g1780">
        <g
   id="g1778">
          <path
   id="path1776"
   d="M709.2 829c-2.1 11.3-2 22.7.1 34 .4 1.9 3.2 1.1 2.9-.8-2-10.8-2.1-21.6-.1-32.4.4-1.9-2.5-2.7-2.9-.8z"
   class="st3"
   style="fill:#2d88ff;fill-opacity:1" />
        </g>
      </g>
      <g
   id="g1786">
        <g
   id="g1784">
          <path
   id="path1782"
   d="M710.2 863c13.5 8.7 29.8 10.9 45.4 13.2 16.8 2.4 33.7 3.8 50.7 2.4 29.1-2.4 65-5.2 84.9-29.5 1.2-1.5-.9-3.6-2.1-2.1-9.4 11.5-22.9 18.1-37.1 21.8-15.4 4-31.7 5.8-47.6 6.9-16.7 1.2-33.4-.3-49.9-2.7-14.7-2.2-30.1-4.3-42.8-12.6-1.6-1-3.1 1.6-1.5 2.6z"
   class="st3"
   style="fill:#2d88ff;fill-opacity:1" />
        </g>
      </g>
      <g
   id="g1792">
        <g
   id="g1790">
          <path
   id="path1788"
   d="M887 816.2c1.9 10.4 2.5 20.8 1.7 31.3-.1 1.9 2.9 1.9 3 0 .8-10.8.1-21.5-1.8-32.1-.3-1.9-3.2-1.1-2.9.8z"
   class="st3"
   style="fill:#2d88ff;fill-opacity:1" />
        </g>
      </g>
      <g
   id="g1798">
        <g
   id="g1796">
          <path
   id="path1794"
   d="M712 829.3c15.9-27.4 51.5-35.4 80.9-37.1 17.4-1 34.9.4 51.9 4.4 8.1 1.9 16.2 4.2 24 7.3 7.4 2.9 14.6 6.8 18.3 14.2.9 1.7 3.5.2 2.6-1.5-7.1-14-26.6-18.5-40.5-22-18.3-4.6-37.4-6.4-56.2-5.3-30.4 1.8-66.9 10.2-83.4 38.6-1.2 1.5 1.4 3 2.4 1.4z"
   class="st3" />
        </g>
      </g>
      <g
   id="g1804">
        <g
   id="g1802">
          <path
   id="path1800"
   d="M784.6 877.7c6.3 56.9 10.5 114 12.7 171.2.1 1.9 3.1 1.9 3 0-2.1-57.2-6.3-114.3-12.7-171.2-.2-1.9-3.2-1.9-3 0z"
   class="st3"
   style="fill:#2d88ff;fill-opacity:1" />
        </g>
      </g>
      <g
   id="g1810">
        <g
   id="g1808">
          <path
   id="path1806"
   d="M803.6 877.7c.2 57.5 2.1 114.9 5.8 172.3.1 1.9 3.1 1.9 3 0-3.7-57.4-5.6-114.8-5.8-172.3-.1-1.9-3.1-1.9-3 0z"
   class="st3"
   style="fill:#2d88ff;fill-opacity:1" />
        </g>
      </g>
      <g
   id="g1816">
        <g
   id="g1814">
          <path
   id="path1812"
   d="M797.1 1048a144.7 144.7 0 00-56.2 46.1c-.5.7 0 2.1.9 2.2 20.7 3.4 41.6 1.7 62.3-.6 20.2-2.2 40.6-4.4 60.1-10.2 1-.3 1.6-1.8.7-2.5a254.6 254.6 0 00-52.9-34.2c-1.7-.8-3.3 1.8-1.5 2.6 18.8 9 36.3 20.3 52.3 33.7.2-.8.4-1.7.7-2.5-19.3 5.8-39.4 7.9-59.3 10.1-20.4 2.3-41.1 4-61.5.7.3.7.6 1.5.9 2.2 14.2-19.5 33.2-34.9 55.1-45 1.6-.8.1-3.4-1.6-2.6z"
   class="st3"
   style="fill:#2d88ff;fill-opacity:1" />
        </g>
      </g>
    </g>
    <g
   id="leg_left">
      <path
   id="path1819"
   d="M694.6 783.1c2.3 9.1 4.7 18.2 7 27.3-12.4-4-23.1-6.1-30.9-7.3-5.6-.8-29.3-4.4-30.9.6-.6 1.9 2.2 4.8 2.5 5.1 2.3 2.3 5.1 2.5 7.6 3.1 5.1 1.1 6.8 3 12.1 5.6 8 4 25.3 10.3 44.7 13.8 6.6 1.2 15.2 2.4 25.6 2.8-4.1-17.9-8.3-35.8-12.4-53.7-8.4.8-16.9 1.7-25.3 2.7z" />
      <path
   id="path1821"
   d="M690.7 532.6c-4.5 1.8-8 5.4-13.6 16.3-9 17.4-11.8 29.8-11.8 29.8-8.4 37.3-12.5 56-14 70.5-4.6 46 3 48 2.7 96.3 0 3.6-.1 11.4 4.5 19 7.3 11.9 21.4 15.3 25.3 16.3 11.5 2.8 22.4.8 31.7-.9 2.6-.5 4.8-1 6.3-1.4 7.2 5.7 13.8 9.6 18.5 12.2 9.1 4.9 17 9.2 28 10.4 6.8.8 13.4.2 16.3 0 5-.4 9.1-1.2 12.2-1.8 4.7 1.6 11.9 3.4 20.8 3.6 5.6.1 24 .2 40.2-11.8 14.5-10.7 19.5-25.1 23.1-35.7 3.4-10.2 16.4-48.9-3.2-69.6-17-18-49.3-12.8-75.1-8.6-12.4 2-22.6 5.1-29.8 7.7-11.9-30.8-20.7-55.1-26.7-71.9-5.7-15.9-14-30.9-19-47-4.5-14.4-6.9-25.9-17.2-31.7-.7-.4-10.1-5.4-19.2-1.7z"
   class="st4" />
      <g
   id="g1827">
        <g
   id="g1825">
          <path
   id="path1823"
   d="M794.8 801.7c26.5 6.1 56.9 2.1 75.1-20.1 9.1-11.1 12-24.9 14.5-38.7 2.5-14.3 3.9-28.9-.7-42.9-.6-1.8-3.5-1-2.9.8 4.5 13.5 3.2 27.6.7 41.3-2.3 13.2-5 26.7-13.7 37.4-17.4 21.4-46.7 25.1-72.2 19.3-1.9-.5-2.7 2.4-.8 2.9z"
   class="st3" />
        </g>
      </g>
      <g
   id="g1833">
        <g
   id="g1831">
          <path
   id="path1829"
   d="M735.1 585c-1.4-13.4-4.9-27.2-11.6-39-5-8.7-13-17-23.8-16.5-11.4.5-19.8 9.7-24.5 19.2-6.4 12.6-10.4 26.9-14.1 40.4-7.6 27.7-11.9 56.4-12.8 85.1-.5 15.2-.1 30.5 1.2 45.7 1.2 13.7 2.2 28.6 6.1 41.8 3.3 11.3 18.4 18 28.9 20.7 12.6 3.2 25.7 2.1 37.5-3.1 1.8-.8.2-3.4-1.5-2.6a54.47 54.47 0 01-33.8 3.2c-9.9-2.2-25-8.3-28.2-18.9-1.7-5.7-2.3-11.9-3.2-17.8a378.69 378.69 0 01-4.2-57.9 364.27 364.27 0 0117.7-111.1c3.8-11.6 7.4-25.3 16.1-34.3 4.9-5 11.9-8.5 19-7.2 6.8 1.3 12 6.6 15.6 12.2 7.6 11.6 11.3 26.3 12.8 40 0 2 3 2.1 2.8.1z"
   class="st3" />
        </g>
      </g>
      <g
   id="g1839">
        <g
   id="g1837">
          <path
   id="path1835"
   d="M682.9 614.8c-3.4 36.5.4 73.6 11.2 108.7 5.2 16.8 11.3 35.4 21.9 49.7 9.4 12.7 24.1 21.1 39 25.8 17.2 5.5 36.1 5.8 52.4-2.5 1.7-.9.2-3.5-1.5-2.6-14.9 7.6-32 7.6-47.7 3-16.1-4.7-32.2-13.9-41.6-28.1-9.2-14-15-30.9-19.8-46.9-5-16.3-8.5-33.1-10.4-50.1-2.1-18.9-2.2-38-.5-56.9.2-2-2.8-2-3-.1z"
   class="st3" />
        </g>
      </g>
      <g
   id="g1845">
        <g
   id="g1843">
          <path
   id="path1841"
   d="M676.4 604.2c.6 13.1 2.5 26 5.8 38.7.5 1.9 3.4 1.1 2.9-.8-3.3-12.4-5.2-25.1-5.7-37.9-.1-1.9-3.1-1.9-3 0z"
   class="st3" />
        </g>
      </g>
      <g
   id="g1851">
        <g
   id="g1849">
          <path
   id="path1847"
   d="M733 585.2c18.9 45.1 35.6 91.2 50.1 138 .6 1.8 3.5 1.1 2.9-.8-14.4-46.8-31.1-92.8-50.1-138-.8-1.7-3.7-.9-2.9.8z"
   class="st3" />
        </g>
      </g>
      <g
   id="g1857">
        <g
   id="g1855">
          <path
   id="path1853"
   d="M692.8 784.5c2.6 9 5.2 18 7.8 27.1.5 1.9 3.4 1.1 2.9-.8-2.6-9-5.2-18-7.8-27.1-.6-1.8-3.5-1-2.9.8z"
   class="st3" />
        </g>
      </g>
      <g
   id="g1863">
        <g
   id="g1861">
          <path
   id="path1859"
   d="M701.8 809.8c-20-7.9-41.5-10.6-62.9-7.8-.8.1-1.9.9-1.4 1.9 2.6 6.4 9.9 8.3 15.7 10.8 8.3 3.6 16.6 7.1 25.1 10.1 17 6.1 34.7 10.3 52.8 9.8 1.9 0 1.9-3 0-3-16 .4-31.7-2.8-46.8-7.9-7.3-2.4-14.4-5.2-21.5-8.2-3.8-1.6-7.7-3.2-11.5-4.9-3.9-1.7-9.2-3.3-11-7.6-.5.6-1 1.3-1.4 1.9 21.1-2.8 42.3-.1 62.1 7.7 1.8.8 2.5-2.1.8-2.8z"
   class="st3" />
        </g>
      </g>
      <g
   id="g1869">
        <g
   id="g1867">
          <path
   id="path1865"
   d="M718 779.1c2.1 18.5 10.9 35.5 12.2 54.1.1 1.9 3.1 1.9 3 0-1.3-18.6-10.1-35.6-12.2-54.1-.2-1.9-3.2-1.9-3 0z"
   class="st3" />
        </g>
      </g>
      <path
   id="path1871"
   d="M688.6 780c-3.4-8.7-8.1-21.7-12.6-37.7-1.9-6.9-14.1-52-11.5-110.4.7-15.3 2.4-32.2 14.6-44.5 4.7-4.7 10-10 14.6-8.9 19.2 4.5-15.3 106.5 33 161.6 24.8 28.3 60.6 31.9 66.4 32.4 51.4 4.6 86.1-32.3 90.5-37.1.3 6.1-.1 15.6-4.2 26.2-7.4 19.2-21.8 29.1-27.2 32.4-24.9 15.2-51 8.1-55.4 6.8-7.2 1.1-16.8 1.7-27.7 0-24.6-3.8-41.2-16.8-48.6-23.5-3.1 1.7-9 4.3-16.7 4.7-6.7.5-12-.9-15.2-2z"
   class="st11" />
      <path
   id="path1873"
   fill="#4c4c4c"
   d="M680.2 603.2c1.3-.1 1.8 11.7 8.4 50.2 7.7 45.5 11.6 68.2 17.3 81.1 7.2 16.4 25.8 45.8 81.6 67.5a94.28 94.28 0 01-66.9-24.1c-6.3 1.4-12.6 2.8-18.8 4.2-3.8-11.4-8.5-26.9-12.6-45.5-15.6-70.1-11.9-133.2-9-133.4z"
   opacity=".13" />
    </g>
    <g
   id="hand_left">
      <path
   id="path1876"
   d="M548.1 562.6c-.5 2.1 2.6 4.9 5.1 6.1 4.1 2 8 .3 8.6 0 0 0 9.2-1 17.7 4 2.6 1.5 5 4.7 9.6 11.1 8.5 11.6 9.6 15.5 15.2 19.2 3.9 2.6 7.7 3.6 10.1 4 2.4 2.7 6.1 6.9 10.6 12.1 16.1 18.8 17.2 22.2 24.8 28.8 8.2 7.2 18.1 16 29.8 14.7 6.2-.7 11.2-4.1 19.2-12.1 16.6-16.7 28.1-35.1 38.4-56.1 11.1-22.6 13.6-33.6 14.7-38.9.6-3.3 6.5-33.1-2-36.9-3.3-1.5-7.6 1.4-14.1 6.6-23.5 18.8-37.4 38.5-38.4 39.9a323.6 323.6 0 00-25.8 44.5l-42.9-22.2c-.9-1.9-2-4.9-2-8.6 0-6.1 3.1-8.4 5.1-15.2 2.1-7 2.4-16.6-1-18.2-2.4-1.1-7 1.6-9.1 5.1-2.2 3.6-.9 6.8-3 8.1-2.7 1.7-7.6-1.7-8.1-2-5.4-3.8-4.9-8.5-9.1-16.2-4.5-8.3-10.5-12.9-14.1-15.7-5-3.8-10.6-8.1-16.2-6.6-.9.2-4.6 1.3-5.9 4.6-.6 1.6-.4 3.1-.2 4-.4-.3-4-2.5-8-1-2.8 1-5.1 3.6-5.6 6.6-.2 1.3 0 2.4.2 3.2-.5-.2-4.8-1.3-7.8 1.3-.5.4-2.2 1.9-2.2 4 0 1.7 1.2 3.1 3.3 4.8 4.5 3.7 7.9 4.6 12.1 6.9 2.1 1.1 4.9 3 8.1 5.9-5.5 0-16.3.5-17.1 4.2z"
   class="st4" />
      <g
   id="g1882">
        <g
   id="g1880">
          <path
   id="path1878"
   d="M672.8 610.1c17.5-34.1 36.8-70.6 72.7-88.5 1.7-.9.2-3.4-1.5-2.6-36.3 18-56 55-73.7 89.5-1 1.8 1.6 3.3 2.5 1.6z"
   class="st3" />
        </g>
      </g>
      <g
   id="g1888">
        <g
   id="g1886">
          <path
   id="path1884"
   d="M628.7 589.3c15.4 10.3 34.6 14.6 47.8 28.1 1.4 1.4 3.5-.7 2.1-2.1-13.4-13.7-32.8-18.1-48.4-28.6-1.6-1.1-3.1 1.5-1.5 2.6z"
   class="st3" />
        </g>
      </g>
      <g
   id="g1894">
        <g
   id="g1892">
          <path
   id="path1890"
   d="M616.2 609.1a153.3 153.3 0 0026.9 34.1c9.4 8.9 21.7 20.3 35.5 20.6 12.6.3 21.2-10.2 27.9-19.5 10-13.9 19.2-28.3 27.8-43.1 8.8-15.1 18.1-31.1 18.5-49 0-1.9-3-1.9-3 0-.4 19.2-11.4 36.4-21 52.4-9.2 15.5-18.7 32-30.6 45.5-5.5 6.3-12.6 11.5-21.3 10.6-9.7-1-18.3-8-25.5-14.1-13.1-11-24-24.3-32.7-39-.9-1.7-3.5-.2-2.5 1.5z"
   class="st3" />
        </g>
      </g>
      <g
   id="g1900">
        <g
   id="g1898">
          <path
   id="path1896"
   d="M618.9 607.2c-4-1.9-8.6-2.5-12.5-4.7-4-2.3-6.8-6.2-9.4-10-4.6-6.8-8.8-13.9-15.3-19.1-3-2.4-6.5-4.4-10.3-5.4-4.2-1.2-8-.5-12.3-.3-2.7.1-8.3.2-8.5-3.9-.3-4 5.3-3.4 7.6-3.5 5.1-.3 10 0 14.7 2 1.8.7 2.6-2.2.8-2.9-5.6-2.3-11.3-2.4-17.3-2-2.9.2-6.7.2-8.3 3.1-1.4 2.5-.3 5.7 1.6 7.7 3.2 3.4 8 2.7 12.2 2.3 15-1.5 23.9 10.5 31.3 21.8 2.6 4 5.3 8 9 11 4.5 3.6 10.1 4.1 15.1 6.6 1.8.7 3.4-1.9 1.6-2.7z"
   class="st3" />
        </g>
      </g>
      <g
   id="g1906">
        <g
   id="g1904">
          <path
   id="path1902"
   d="M630.9 587.9c-5.4-6.3-.4-16.1 1.5-22.9 1.4-4.9 3.4-11.7.8-16.6-1.5-2.9-4.8-4.7-8-3.5a8.9 8.9 0 00-4.2 3.7c-1.4 2.3-1.8 8.6-4.6 9.3-1.9.4-1.1 3.3.8 2.9 3.4-.8 4.1-4.2 5.1-7.1.5-1.5 1.5-5.4 3.4-5.7l5.4 3c.1.9.2 1.7.4 2.6.2 3.6-.9 7.3-1.8 10.7-2.4 8.1-7.1 18.3-.8 25.8 1.1 1.4 3.2-.8 2-2.2z"
   class="st3" />
        </g>
      </g>
      <g
   id="g1912">
        <g
   id="g1910">
          <path
   id="path1908"
   d="M549.7 547c-1.5-.8-3.1-1.7-4.3-2.8-1.7-.9-2-2.2-.9-3.8-.1-2.3 1.1-3.1 3.5-2.7 4.5-.3 8.4 1.9 12.3 3.7 6.7 3.2 13.1 6.6 18.7 11.5 1.4 1.3 3.6-.8 2.1-2.1-4.9-4.3-10.4-7.6-16.2-10.5-5.5-2.8-11.4-6.3-17.8-5.6-3.3.4-7.2 1.6-7.1 5.5.1 4.5 4.7 7.3 8.1 9.3 1.7 1 3.2-1.6 1.6-2.5z"
   class="st3" />
        </g>
      </g>
      <g
   id="g1918">
        <g
   id="g1916">
          <path
   id="path1914"
   d="M553.6 534.9c-5.3-4 1.6-6.7 3.7-7.1 2-.3 4 .2 5.9.8 3.2 1.1 6.1 3 8.9 4.9 5.4 3.7 10.3 8 14.9 12.7 1.4 1.4 3.5-.7 2.1-2.1-7.5-7.6-18.3-18.4-29.6-19.4-7.1-.6-14.8 7.1-7.4 12.7 1.5 1.3 3-1.3 1.5-2.5z"
   class="st3" />
        </g>
      </g>
      <g
   id="g1924">
        <g
   id="g1922">
          <path
   id="path1920"
   d="M566.6 525.9c-3.6-4.5 4.5-6.1 6.9-5.7 1 .2 1.9.5 2.9.8a29 29 0 018.7 5c4.7 3.7 8.6 8.4 12.2 13.2 1.2 1.5 3.8 0 2.6-1.5-6.3-8.3-13.7-17-24.2-20-3.5-1-8.1-1.3-10.9 1.6a6.26 6.26 0 00-.3 8.7c1.2 1.5 3.3-.6 2.1-2.1z"
   class="st3" />
        </g>
      </g>
      <g
   id="g1930">
        <g
   id="g1928">
          <path
   id="path1926"
   d="M596.3 537.1c3.7 6.3 7 13 11.2 19 2.6 3.7 6.4 6.4 11 4.5 1.8-.7 1-3.6-.8-2.9-6.1 2.4-9.3-6-11.7-10.1-2.4-4-4.7-8.1-7.1-12.1-.9-1.6-3.5-.1-2.6 1.6z"
   class="st3" />
        </g>
      </g>
      <g
   id="g1936">
        <g
   id="g1934">
          <path
   id="path1932"
   d="M547.2 548.4c5.6 3.7 11.3 7.3 16.9 11 1.6 1.1 3.1-1.5 1.5-2.6-5.6-3.7-11.3-7.3-16.9-11-1.6-1-3.1 1.6-1.5 2.6z"
   class="st3" />
        </g>
      </g>
      <path
   id="path1938"
   d="M544.2 538.5c4-1.9 10.1 3.4 13.9 6.5 18.5 15.1 19.4 9.8 30 20.7 10.8 11 10.5 17 21.3 23.6 5.1 3.1 9.9 4.7 13.2 5.5 1.9 2.7 4.7 6.7 8.4 11.3 13.3 16.7 20.2 25.4 31 29.4.9.3 18.2 6.5 32.6-1.9 11.5-6.7 11.5-17.4 24.9-52.3 16.9-44 23.7-49.5 28.1-49.1 2.6.2 5 2.6 6.1 4.5 2.3 3.9.5 8.1-1.9 17.8-2.3 9.2-1.8 9.6-3.2 15.2-3.9 14.8-10.9 23-30.7 56.5-3.2 5.3-7.5 12.7-14.9 21.3-6.3 7.4-10.3 11.8-16.5 13.9-10.4 3.5-20.6-1.9-25.5-4.5-6.6-3.5-11.3-7.8-18.7-16.5-6.9-8-15.7-19.3-24.9-33.9-2.1 0-5.4-.4-9-1.9-3.1-1.4-7.1-3.9-16.8-17.8-6.9-9.9-6.8-11.3-10.3-13.6-5.5-3.6-12.3-4.2-15.8-4.5-8.1-.8-12.4.9-14.5-1.9-1.3-1.8-1.4-4.8 0-6.5 3.4-4.2 15 1 15.5-.3.3-.9-4.3-3.3-12.3-8.1-9.5-5.7-12.5-7.9-12.3-10.3a3.8 3.8 0 012.3-3.1z"
   class="st8" />
    </g>
    <g
   id="hand_right">
      <path
   id="path1941"
   d="M872.5 500.4c-5.4 1.1-7.5 11.2-9.6 20.7-2.6 12.2-2.8 22.5-2.5 30.3.7 21.5 5.3 42 11.1 54.1 3.1 6.5 5 7.3 8.6 15.7 1.2 2.8 2.1 5.2 4.5 7.1 4.6 3.5 10.6 2.2 11.1 2 6.2-1.5 9.5-6.9 11.1-9.6 4.5-7.7 4.6-15.6 3.5-29.3-1.6-20.7-2.4-31-5.6-41.9-2.8-9.7-7.5-21.9-16.2-34.4-5.2-7.8-10.8-15.7-16-14.7z"
   class="st4" />
      <g
   id="g1947">
        <g
   id="g1945">
          <path
   id="path1943"
   d="M872.6 503.1c5.4-.6 9.3 6 12.1 9.9 2.5 3.5 4.8 7.2 7 10.9 4.3 7.7 7.8 15.8 10.4 24.2 5.2 16.6 7.4 34 7.2 51.4-.1 9 0 20.8-7.6 27.2-3.5 2.9-8.8 4.7-13.1 2.6-4.5-2.2-7.1-8.2-9.4-12.3-9.2-16.6-15-35-17-53.9-2.2-20.5-.7-43 10.6-60.7 1-1.6-1.6-3.1-2.6-1.5-11.6 18.2-13.2 41.3-11 62.2 2.2 21.6 9.3 43.1 21 61.4 4.3 6.7 10.3 10.7 18.3 7.6 8.3-3.2 12-11.5 13.1-19.8 2.8-19.6.1-41.3-5.2-60.3a136.4 136.4 0 00-13.3-31.8c-2.8-4.8-6-9.4-9.4-13.7-2.9-3.6-6.1-7-11-6.5-2 .3-2 3.3-.1 3.1z"
   class="st3" />
        </g>
      </g>
      <path
   id="path1949"
   d="M875.7 503c-2.6 12.7-3.9 27.4-2.3 43.6 1.6 15.5 5.4 26.9 10.3 41.7 3.9 11.7 9.3 25.5 16.8 40.7-2.1 1.3-5.4 2.8-9 2.3-7.3-1.1-11.6-9.6-14.5-16.2-10.6-23.6-15.9-35.4-16.8-55.6-1.3-27.7 6.1-58.4 12.6-58.5 1.2 0 2.2 1.1 2.9 2z"
   class="st6" />
    </g>
    <g
   id="torso">
      <path
   id="path1952"
   fill="#ec615b"
   d="M735.1 520.1c-.5 4.3-1 10.4-1.5 17.7-.4 5.5-1.4 21.6-1 36.9.9 30.2 7.5 54.2 11.6 68.7 3.7 13 7.6 23.7 10.6 31.3.3 2.9 1 7 2.5 11.6 7.2 21.6 25.8 32.3 30.3 34.9 22.5 12.6 44.9 8 51.5 6.6 6.6-1.5 27.9-6.4 41.9-25.3 4.6-6.1 8.7-14.1 12.6-35.4 1.8-9.9 6-35.9 3-80.3-3.1-45.2-10.4-62.2-14.7-70.7-3.8-7.7-7.8-13.7-10.6-17.7-23.3-9.6-42.7-9.8-53.6-9.1-18.3 1.2-32.3 6.7-46 12.1-15.5 6.2-27.9 13.2-36.6 18.7z" />
      <g
   id="g1958">
        <g
   id="g1956">
          <path
   id="path1954"
   d="M733 522.8c-7.4 52.8.5 106.9 22.6 155.4.8 1.8 3.4.2 2.6-1.5a276.9 276.9 0 01-22.3-153.1c.2-1.9-2.7-2.7-2.9-.8z"
   class="st3" />
        </g>
      </g>
      <g
   id="g1964">
        <g
   id="g1962">
          <path
   id="path1960"
   d="M751.5 670.8c3.6 25.1 21.7 46.8 45.5 55.5 25.4 9.3 55.9 3.8 76.2-14 10.6-9.2 17.9-21.6 19.3-35.7.2-1.9-2.8-1.9-3 0-3.3 33.7-40.6 52.8-71.4 50.9-31.8-1.9-59.2-25.8-63.7-57.6-.3-1.8-3.2-1-2.9.9z"
   class="st3" />
        </g>
      </g>
      <g
   id="g1970">
        <g
   id="g1968">
          <path
   id="path1966"
   d="M734.8 522.8c39.7-25 89.4-42.7 135.1-23 1.8.8 3.3-1.8 1.5-2.6-46.8-20.2-97.4-2.7-138.2 23-1.5 1.1 0 3.7 1.6 2.6z"
   class="st3" />
        </g>
      </g>
      <g
   id="g1976">
        <g
   id="g1974">
          <path
   id="path1972"
   d="M869.9 499.5c10.8 9.9 15 26.5 18.1 40.4 3.4 15.2 5.4 30.8 6.7 46.4 2.6 30.9 1.7 62.1-4.5 92.6-.4 1.9 2.5 2.7 2.9.8 6.6-32 7.4-64.7 4.3-97.2-1.5-15.7-3.5-31.6-7.3-47-3.3-13.2-7.7-28.6-18-38.1-1.5-1.3-3.6.8-2.2 2.1z"
   class="st3" />
        </g>
      </g>
      <g
   id="g1982">
        <g
   id="g1980">
          <path
   id="path1978"
   d="M769.2 687.6a81.2 81.2 0 0045 20.8c1.9.2 1.9-2.8 0-3-16.1-2-31-9-42.9-20-1.4-1.2-3.6.9-2.1 2.2z"
   class="st3" />
        </g>
      </g>
      <path
   id="path1984"
   fill="#4c4c4c"
   d="M814.5 490.5c3.7 5.8 7.5 11.7 11.2 17.5 7.7 18.7 17.2 46 23.1 80.2 2.9 17.1 5.7 33.1 4.7 53.1-.9 18-5.5 50.6-28.7 88.3 5.1-.1 12.5-.7 20.9-3.4 3.5-1.1 29.3-9.8 41.8-34.3 5.2-10.2 6.1-19.3 6.9-30.3 4.2-59 .3-97.1-1.9-110.2-1.8-10.8-4.4-23.3-11.5-37.5-3.7-7.3-7.6-12.9-10.3-16.5-6.9-3-17.2-6.5-30-7.8-10.5-1-19.5-.2-26.2.9z"
   opacity=".15" />
      <path
   id="path1986"
   d="M882.9 522.1c-3.6.2-5.4 21.9-6.6 36.5-2.7 33.4-.7 57.5-.3 66.2 1.1 23.4-4.4 57.2-34 101.7 4.7-1.2 11.7-3.5 19.4-7.8 6.6-3.7 16-9 22.8-20 2.3-3.8 5.9-10.7 7.2-20.6 3.2-18.4 6.4-44.8 5.3-76.5-1.5-37.6-8.8-79.8-13.8-79.5z"
   class="st6" />
    </g>
    <g
   id="head">
      <path
   id="path2004"
   d="M725.8 432.8c-.7 2 0 5.9.8 10.9.2 1.4.8 4.2 2.2 8.9 2.5 8.2 5.4 14.2 6.1 15.6 7.1 14.4 15.9 23.7 18.4 26.2 4.2 4.2 8.1 7.4 10.9 9.5 8.7-3.5 17.4-7.1 26.2-10.6 3.1-2.3 7.9-6.5 11.1-13.4 5.8-12.5 2.7-26.2-1.9-34.2-16.1-28.1-70.3-22.7-73.8-12.9z"
   class="st4" />
      <g
   id="g2010">
        <g
   id="g2008">
          <path
   id="path2006"
   d="M724.2 440.9c3 13.5 8 26.5 15.2 38.4 3.4 5.6 7.3 10.9 11.5 15.9 3.7 4.4 7.6 8.7 13.5 10.1 1.9.4 2.7-2.5.8-2.9-6.2-1.4-10.4-7.1-14.3-11.9-4-4.9-7.5-10.2-10.6-15.6-6.2-10.9-10.6-22.6-13.2-34.8-.4-1.8-3.3-1-2.9.8z"
   class="st3" />
        </g>
      </g>
      <g
   id="g2016">
        <g
   id="g2014">
          <path
   id="path2012"
   d="M746.8 465.5c-.4-8.7 10-6 13.4-1.5 4 5.2 2.9 16.4-5.9 14.9-1.9-.3-2.7 2.6-.8 2.9 11.3 1.9 15.1-11.9 9.1-19.7-5.2-6.8-19.4-8.3-18.8 3.3.1 2 3.1 2 3 .1z"
   class="st3" />
        </g>
      </g>
      <path
   id="path2018"
   d="M724.7 438.7c-1.3-4.6-3.5-12 .4-19.3 3.4-6.2 9.3-8.8 11.7-9.6-.1-1.4-.4-9.2 5.6-15.7 6.1-6.5 13.9-6.8 15.3-6.8 2.5-1.9 6.1-4.3 10.9-6 1.7-.6 9.6-3.4 18.9-2 12.8 1.9 15 9.6 29.3 15.7 4.8 2 12.4 4.5 22.9 4.8l-7.6 8.8c1.9 2.1 4.5 5.4 6.4 10 1 2.3 2.8 7.6 2.4 17.7-.4 9.8-2.8 17.7-4.8 24.5-3.6 11.8-5.7 15.3-3.6 20.1 2.3 5.4 7.8 6.9 7.1 9.2-.8 2.5-7.8 2.8-12.7 2.2-7.3-.9-11.9-4.1-12.7-3-1 1.3 5.9 5.9 4.8 8.9-1.3 3.9-14.4 3.3-23.8 1.1-3.2-.7-8.8-2.4-15.4-6.1-8.4-4.7-14-10.5-17.3-14.5 2.5-5.6 2.2-11.8-1.2-16.1-.3-.4-5.3-6.5-11.3-4.8-3.3 1-5.1 3.9-5.6 4.8-4.3-2.4-15.6-9.9-19.7-23.9z"
   class="st1" />
      <path
   id="path2020"
   fill="#4c4c4c"
   d="M737 410.5c2.1 6.3 15.8 5.1 26 8.5 7.3 2.4 17 8.7 25.7 26.1-2.4-7.8-13.5-40-39.9-47.2-2.5-.7-5.2-1.2-8.3-1.4-1 1.2-3 4-3.6 7.9 0 .5-.6 3.9.1 6.1z"
   opacity=".24" />
      <path
   id="path2022"
   fill="#4c4c4c"
   d="M758.3 386.7c1.8-1.4 4.4-3.2 7.7-4.6a37 37 0 016.9-2.1 84.6 84.6 0 0023.8 14.6c18.1 7.3 34.3 6.4 42.6 5.3-1.3 2.4-3.6 5.8-7.4 8.5-13.9 9.9-34.7 1.4-44.6-2.6-6.9-2.8-17.9-8.3-29-19.1z"
   opacity=".17" />
      <path
   id="path2024"
   fill="#4c4c4c"
   d="M807.5 455.5c-1.6.5.5 11.8 1.2 15.2a75.5 75.5 0 006.2 18.3c3.2 1 6.4 2.1 9.5 3.1-11.8-30.7-15.6-37-16.9-36.6z"
   opacity=".14" />
      <path
   id="path2026"
   d="M760.2 467.6c.3 2.5.5 4.8-.8 6.7-1.6 2.3-4.1 1.9-6.3 5.2-.8 1.2-.8 1.8-.6 2.1.5.9 2.6.5 3.6.5 5.2.2 8.3 5.5 11.9 8.6 2.9 2.6 7.9 5.3 16.9 5.5-4.4-2.4-9.5-5.6-14.7-9.9-2.9-2.4-5.5-4.9-7.7-7.2 1-2.2 2.8-7.1.9-12.1-1.4-3.8-4.6-6.5-5-6.2-.5.3 1.3 2.6 1.8 6.8z"
   class="st8" />
    </g>
  </g>
</svg>