<?xml version="1.0" encoding="UTF-8"?>
<svg version="1.1" viewBox="0 0 1600 1200" xml:space="preserve" xmlns="http://www.w3.org/2000/svg">
  
  <style type="text/css">
    .st1{fill:#5222d0}.st2{fill:#e8e8e8}.st3{fill:#161616}.st4{fill:#fff}.st5{opacity:9.000000e-002}.st11,.st5,.st6,.st8{fill:#4c4c4c}.st6,.st8{opacity:.11}.st8{opacity:.12}.st11{opacity:.1}
  </style>
  
    
      
        
          <path class="st2" d="M452.2 1115l44.9-56.3c13.7-17.1 27.4-34.3 43.4-49.3 1.4-1.3-.7-3.4-2.1-2.1-16 15.1-29.7 32.2-43.4 49.3l-44.9 56.3c-1.2 1.5.9 3.6 2.1 2.1z"/>
        
      
      
        
          <path class="st2" d="m538.4 1008.8h489c1.9 0 1.9-3 0-3h-489c-2 0-2 3 0 3z"/>
        
      
      
        
          <path class="st2" d="M1026.9 1009.1c35.7 36.7 69.3 75.3 100.5 115.8 1.2 1.5 3.8 0 2.6-1.5a1330.6 1330.6 0 00-101-116.4c-1.3-1.4-3.5.7-2.1 2.1z"/>
        
      
      
        
          <path class="st2" d="M288.2 1020.2h139.4c1.9 0 1.9-3 0-3H288.2c-1.9 0-1.9 3 0 3z"/>
        
      
      
        
          <path class="st2" d="m1263.9 961h211.7c1.9 0 1.9-3 0-3h-211.7c-1.9 0-1.9 3 0 3z"/>
        
      
      
        
          <path class="st2" d="m1257.3 1016.2h88.1c1.9 0 1.9-3 0-3h-88.1c-1.9 0-1.9 3 0 3z"/>
        
      
    
    
      <g fill="#2d88ff">
        <g fill="#2d88ff">
          <path class="st3" d="M444.5 957.7h108.9c1.9 0 1.9-3 0-3H444.5c-2 0-2 3 0 3z" fill="#2d88ff"/>
        </g>
      </g>
      <g fill="#2d88ff">
        <g fill="#2d88ff">
          <path class="st3" d="M758.3 957.7h368.3c1.9 0 1.9-3 0-3H758.3c-1.9 0-1.9 3 0 3z" fill="#2d88ff"/>
        </g>
      </g>
      
        
          <path class="st3" d="M1126.6 977.2H1386c1.9 0 1.9-3 0-3h-259.4c-1.9 0-1.9 3 0 3z"/>
        
      
      
        
          <path class="st3" d="M273.3 1079.6H355c1.9 0 1.9-3 0-3h-81.7c-2 0-2 3 0 3z"/>
        
      
      
        
          <path class="st3" d="m968.4 1061.5h118c1.9 0 1.9-3 0-3h-118c-2 0-2 3 0 3z"/>
        
      
      
        
          <path class="st3" d="m1279.6 1065.3h106.3c1.9 0 1.9-3 0-3h-106.3c-1.9 0-1.9 3 0 3z"/>
        
      
    
  
  
    
      <path class="st4" d="M386.3 701.5v380.9l26.3-2.8V698.7l-26.3 2.8z"/>
      <path class="st4" d="M1146.8 705.6l-.7 374h25.6V702.1l-24.9 3.5z"/>
      <path d="M515.9 955.6a5622.1 5622.1 0 011.4-271.5l-31.9-.7-.7 270.8 31.2 1.4z" fill="#2d88ff"/>
      <path d="M1045 689.7l.7 264.6 28.4-.7 2.1-268.7-31.2 4.8z" fill="#2d88ff"/>
      <path d="M343.4 693.8l-.7 22.2 860.2 1.4-2.1-23.5a9742.3 9742.3 0 00-857.4-.1z" fill="#2d88ff"/>
      <path class="st4" d="M343.4 693.1l857.5.7-91.4-86.6-691.9.7-74.2 85.2z"/>
      
        
          <path class="st3" d="M343.5 695.1c24.7-29.5 50.1-58.4 76.3-86.6 1.3-1.4-.8-3.5-2.1-2.1-26.2 28.2-51.6 57-76.3 86.6-1.2 1.4.9 3.6 2.1 2.1z"/>
        
      
      <g fill="#2d88ff">
        <g fill="#2d88ff">
          <path class="st3" d="m340.8 695.1v18.7c0 1.9 3 1.9 3 0v-18.7c0-1.9-3-1.9-3 0z" fill="#2d88ff"/>
        </g>
      </g>
      <g fill="#2d88ff">
        <g fill="#2d88ff">
          <path class="st3" d="m344.8 717.8h857c1.9 0 1.9-3 0-3h-857c-2 0-2 3 0 3z" fill="#2d88ff"/>
        </g>
      </g>
      <g transform="translate(-1.6 2.4)" fill="#2d88ff">
        <g fill="#2d88ff">
          <path class="st3" d="M1204.5 715v-22.4c0-1.9-3-1.9-3 0V715c0 2 3 2 3 0z" fill="#2d88ff"/>
        </g>
      </g>
      
        <g fill="#2d88ff">
          <path class="st3" d="m343.5 695.4h857c1.9 0 1.9-3 0-3h-857c-1.9 0-1.9 3 0 3z" fill="#2d88ff"/>
        </g>
      
      
        
          <path class="st3" d="m420.6 609.6h689c1.9 0 1.9-3 0-3h-689c-1.9 0-1.9 3 0 3z"/>
        
      
      
        
          <path class="st3" d="M1108.1 609.7l91 84.4c1.4 1.3 3.5-.8 2.1-2.1l-91-84.4c-1.4-1.3-3.5.8-2.1 2.1z"/>
        
      
      
        
          <path class="st3" d="M385.6 716.3v364.5c0 1.9 3 1.9 3 0V716.3c0-2-3-2-3 0z"/>
        
      
      
        
          <path class="st3" d="m411.7 717.5v362c0 1.9 3 1.9 3 0v-362c0-1.9-3-1.9-3 0z"/>
        
      
      
        
          <path class="st3" d="M387.1 1083.7l23.6-1.4c1.9-.1 1.9-3.1 0-3l-23.6 1.4c-1.9.2-2 3.2 0 3z"/>
        
      
      
        
          <path class="st3" d="M1144.3 716.3v364.5c0 1.9 3 1.9 3 0V716.3c0-2-3-2-3 0z"/>
        
      
      
        
          <path class="st3" d="m1170.4 717.5v362c0 1.9 3 1.9 3 0v-362c0-1.9-3-1.9-3 0z"/>
        
      
      
        
          <path class="st3" d="M1147 1081.7l23.6-1.4c1.9-.1 1.9-3.1 0-3l-23.6 1.4c-1.9.1-1.9 3.1 0 3z"/>
        
      
      
        <g fill="#2d88ff">
          <path class="st3" d="M484.2 717.7v235.5c0 1.9 3 1.9 3 0V717.7c0-1.9-3-1.9-3 0z" fill="#2d88ff"/>
        </g>
      
      <g fill="#2d88ff">
        <g fill="#2d88ff">
          <path class="st3" d="M514.1 719.1v234.1c0 1.9 3 1.9 3 0V719.1c0-1.9-3-1.9-3 0z" fill="#2d88ff"/>
        </g>
      </g>
      <g fill="#2d88ff">
        <g fill="#2d88ff">
          <path class="st3" d="M487 956.1h28.6c1.9 0 1.9-3 0-3H487c-1.9 0-1.9 3 0 3z" fill="#2d88ff"/>
        </g>
      </g>
      <g fill="#2d88ff">
        <g fill="#2d88ff">
          <path class="st3" d="M1045 716.4v236.8c0 1.9 3 1.9 3 0V716.4c0-1.9-3-2-3 0z" fill="#2d88ff"/>
        </g>
      </g>
      <g fill="#2d88ff">
        <g fill="#2d88ff">
          <path class="st3" d="M1073.5 719.1v234.1c0 1.9 3 1.9 3 0V719.1c0-1.9-3-1.9-3 0z" fill="#2d88ff"/>
        </g>
      </g>
      <g fill="#2d88ff">
        <g fill="#2d88ff">
          <path class="st3" d="m1047.8 956.1h27.2c1.9 0 1.9-3 0-3h-27.2c-1.9 0-1.9 3 0 3z" fill="#2d88ff"/>
        </g>
      </g>
    
    <g transform="translate(37.2)">
      <path class="st4" d="M945.6 590.9a12 12 0 00-2.3 6.5c-2.2 16-1.4 28.1-1.4 28.1.4 6 .8 14.9 1.1 26.3a27 27 0 0011 7.2c7.5 2.5 14.6.8 28.4-2.7 5.6-1.4 10-2.8 13-3.8 2.2-4.1 2.9-7.6 3.1-9.9.4-4.9-1.1-7.2.7-9.7 1.8-2.5 4.4-2 5.6-4.7.7-1.6.6-4-.5-4.9-1.9-1.3-5.3 2.1-7 .7-.5-.4-.5-.8-.7-4.5-.3-5-.4-5.6.2-6.1.5-.6 2.2-.6 5.4-.5 2.4 0 3.5 0 4 .4 1.9 1.5 1.1 6.4-.7 9.9-2.3 4.4-5.8 5.8-5.4 6.7.5.9 4.9 0 8.5-2.2 2.1-1.3 5.2-3.1 5.9-6.5 1.2-5-3.6-9.4-4.3-10.1-5.9-5.5-14.5-3.7-15.6-3.4l.4-14.4a81.2 81.2 0 00-30.4-7.2c-14.1-.5-17.8 3.1-19 4.8z" fill="#fff"/>
      
        
          <path class="st3" d="M941.2 595.4a389.8 389.8 0 00-.6 55.1c.1 1.9 3.1 1.9 3 0-1.1-18.4-.9-36.8.6-55.1.2-1.9-2.8-1.9-3 0z" fill="#161616"/>
        
      
      
        
          <path class="st3" d="M940.8 651.3c13.4 14.8 34.3 10.2 50.6 3.9 1.8-.7 1-3.6-.8-2.9-15.3 5.9-35.1 10.9-47.7-3.1-1.3-1.4-3.4.7-2.1 2.1z" fill="#161616"/>
        
      
      
        
          <path class="st3" d="M944.1 595.3c3.9-7.1 17.1-7.8 24.3-7.6 8.6.2 16.8 2.5 24.4 6.6 1.7.9 3.2-1.7 1.5-2.6-8.9-4.9-19-7.4-29.2-7-7.7.3-19.4 1.6-23.6 9.1-.9 1.7 1.7 3.2 2.6 1.5z" fill="#161616"/>
        
      
      
        
          <path class="st3" d="M993.1 594.6v13.5c0 1 1 1.6 1.9 1.4 5-1.1 12.9 0 15.8 4.9 5.7 9.4-5.4 11.4-11.1 15.2-2.5 1.6-2.9 3.3-2.9 6.2 0 6.5 0 14-6.7 17.3-1.7.9-.2 3.4 1.5 2.6 5.9-2.9 7.8-9 8.1-15.2.1-2.8-.8-6 1.4-8.3 1.1-1.1 3.3-1.6 4.7-2.3a19 19 0 007.8-5.6c3.8-5.1 1.7-10.4-2.8-14.1a19.8 19.8 0 00-16.6-3.7l1.9 1.4v-13.5c-.1-1.7-3.1-1.7-3 .2z" fill="#161616"/>
        
      
      
        
          <path class="st3" d="M995.4 613.5c-.4 3.7-.2 7.4.6 11 .4 1.9 3.3 1.1 2.9-.8-.7-3.4-.9-6.8-.5-10.2.2-1.9-2.8-1.9-3 0z" fill="#161616"/>
        
      
      
        
          <path class="st3" d="M997.7 616.5c1.5-1.3 3.7-2.2 5.7-1.6 1.9.6 3.4 2.8 2.5 4.8-1.3 2.7-5.7 2.7-8.3 2.7-1.9 0-1.9 3 0 3 4.7.1 12.3-1.3 11.5-7.7a7.2 7.2 0 00-4.9-5.7c-3.1-.9-6.3.3-8.7 2.4-1.4 1.2.7 3.3 2.2 2.1z" fill="#161616"/>
        
      
      
        
          <path class="st3" d="M952.7 590.6c-2 1.6-5.3.8-5.6 4.2-.3 2.7 2 4.6 4.3 5.1 5.2 1.1 11.6-.2 17-.1 6.4.1 12.9.6 19.3 1.3.8.1 1.5-.8 1.5-1.5 0-1.7 0-1.8-.9-3.3-1-1.6-3.6-.1-2.6 1.5l.5 1.8 1.5-1.5c-7.7-.9-15.4-1.3-23.1-1.3l-5.8.1c-1.4 0-4.3.8-5.5.2l-1.9-2.7 1.6-.4 1.9-1.2c1.5-1.3-.7-3.4-2.2-2.2z" fill="#161616"/>
        
      
      <path class="st5" d="M970.6 586.5c-.4-1.4-8.9-.8-16.6 1.6-4.4 1.3-7.9 3.1-10.3 4.3a723.9 723.9 0 00-1.6 59.3 36.7 36.7 0 0034.4 5.5l-5.1-58.5c-8-.1-14.3-.8-14.6-2.8-.6-3.1 14.4-7.5 13.8-9.4z"/>
      <path class="st6" d="M944.1 598.7l13 40.3 6.7 20.2a32.7 32.7 0 01-21.3-8.7 252.5 252.5 0 011.6-51.8z" fill="#4c4c4c" opacity=".1"/>
    </g>
    <g transform="translate(39.7 -7)">
      <path class="st4" d="M320.9 501.7L372.7 634l151.8-92.2-43.7-107.5a1212 1212 0 00-159.9 67.4z" fill="#fff"/>
      <path class="st4" d="M371.8 635.8a673.1 673.1 0 0062.9 33.8 714.9 714.9 0 0041.9 18.3c23.1-15.6 46.2-31.2 69.2-47 22.7-15.6 45.4-31.2 68-47l-86.5-51.2-155.5 93.1z" fill="#fff"/>
      
        
          <path class="st3" d="M400 638c43.7-26.4 88.1-52.1 129.7-81.8 1.6-1.1.1-3.7-1.5-2.6-41.6 29.7-86 55.4-129.7 81.8-1.6 1-.1 3.6 1.5 2.6z" fill="#161616"/>
        
      
      
        
          <path class="st3" d="M416.6 648.3c43.7-26.4 88.1-52.1 129.7-81.8 1.6-1.1.1-3.7-1.5-2.6-41.6 29.7-86 55.4-129.7 81.8-1.6 1-.1 3.6 1.5 2.6z" fill="#161616"/>
        
      
      
        
          <path class="st3" d="M436.9 658c43.7-26.4 88.1-52.1 129.7-81.8 1.6-1.1.1-3.7-1.5-2.6-41.6 29.7-86 55.4-129.7 81.8-1.7 1-.2 3.6 1.5 2.6z" fill="#161616"/>
        
      
      
        
          <path class="st3" d="M453.5 668.3c43.7-26.4 88.1-52.1 129.7-81.8 1.6-1.1.1-3.7-1.5-2.6-41.6 29.7-86 55.4-129.7 81.8-1.7 1-.2 3.6 1.5 2.6z" fill="#161616"/>
        
      
      
        
          <path class="st3" d="M413.6 628.6l33.1 20.9c1.6 1 3.1-1.6 1.5-2.6L415.1 626c-1.6-1-3.1 1.6-1.5 2.6z" fill="#161616"/>
        
      
      
        
          <path class="st3" d="M430.8 618.6l30.9 21.8c1.6 1.1 3.1-1.5 1.5-2.6L432.3 616c-1.5-1.1-3 1.5-1.5 2.6z" fill="#161616"/>
        
      
      
        
          <path class="st3" d="M447.3 608.5c9.9 7.2 19.7 14.6 29.2 22.4 1.5 1.2 3.6-.9 2.1-2.1a652.3 652.3 0 00-29.8-22.8c-1.6-1.3-3.1 1.3-1.5 2.5z" fill="#161616"/>
        
      
      
        
          <path class="st3" d="M464.5 598.7c9.7 6.9 18.9 14.4 27.7 22.4 1.4 1.3 3.5-.8 2.1-2.1-9-8.2-18.4-15.8-28.3-22.9-1.6-1.1-3.1 1.5-1.5 2.6z" fill="#161616"/>
        
      
      
        
          <path class="st3" d="M480.3 590.1a259 259 0 0125.3 23.8c1.3 1.4 3.4-.7 2.1-2.1a270.9 270.9 0 00-25.3-23.8c-1.4-1.2-3.6.9-2.1 2.1z" fill="#161616"/>
        
      
      
        
          <path class="st3" d="M492.8 580.3c9.8 7.7 18.7 16.2 26.9 25.5 1.3 1.5 3.4-.7 2.1-2.1a202.9 202.9 0 00-26.9-25.5c-1.4-1.2-3.6.9-2.1 2.1z" fill="#161616"/>
        
      
      
        
          <path class="st3" d="M508.4 569.6a459 459 0 0127.9 24.1c1.4 1.3 3.5-.8 2.1-2.1-9-8.4-18.3-16.5-27.9-24.1-1.5-1.2-3.6.9-2.1 2.1z" fill="#161616"/>
        
      
      
        
          <path class="st3" d="M521.6 562.2c5.3 3 9.5 7.8 13.9 12l12.8 12.3c1.4 1.3 3.5-.8 2.1-2.1l-14.1-13.6c-4.1-4-8.1-8.3-13.1-11.2-1.8-.9-3.3 1.7-1.6 2.6z" fill="#161616"/>
        
      
      
        
          <path class="st3" d="M398 638.2a317.8 317.8 0 0036.5 20.4c1.7.8 3.3-1.8 1.5-2.6-12.6-6-24.7-12.9-36.5-20.4-1.6-1-3.1 1.6-1.5 2.6z" fill="#161616"/>
        
      
      
        
          <path class="st3" d="M529.5 557l1.2.3c.8.2 1.7-.2 1.8-1 .2-.8-.2-1.6-1-1.8l-1.2-.3c-.8-.2-1.7.2-1.8 1-.3.7.2 1.6 1 1.8z" fill="#161616"/>
        
      
      
        
          <path class="st3" d="M529.2 556.8c12.6 5.6 23.5 14.2 35.7 20.5 1.7.9 3.2-1.7 1.5-2.6-12.2-6.3-23.1-14.9-35.7-20.5-1.7-.8-3.3 1.8-1.5 2.6z" fill="#161616"/>
        
      
      
        
          <path class="st3" d="M433.2 658.5c6.2 3.1 12.2 6.6 17.9 10.5 1.6 1.1 3.1-1.5 1.5-2.6a161 161 0 00-17.9-10.5c-1.7-.9-3.2 1.7-1.5 2.6z" fill="#161616"/>
        
      
      
        
          <path class="st3" d="M447.6 650.1c4.6 3.4 9 7.1 13.2 11.1 1.4 1.3 3.5-.8 2.1-2.1-4.3-4.2-8.9-8-13.8-11.6-1.5-1.2-3 1.4-1.5 2.6z" fill="#161616"/>
        
      
      
        
          <path class="st3" d="M462 641c5 3.7 9.6 7.8 13.8 12.3 1.3 1.4 3.4-.7 2.1-2.1a103 103 0 00-14.4-12.8c-1.5-1.1-3 1.5-1.5 2.6z" fill="#161616"/>
        
      
      
        
          <path class="st3" d="M477.1 631.4c4.2 4 8.2 8.2 12.1 12.4 1.3 1.4 3.4-.7 2.1-2.1a236 236 0 00-12.1-12.4c-1.4-1.4-3.5.7-2.1 2.1z" fill="#161616"/>
        
      
      
        
          <path class="st3" d="M518.8 605l12.1 14.2c1.2 1.5 3.4-.7 2.1-2.1l-12.1-14.2c-1.3-1.5-3.4.7-2.1 2.1z" fill="#161616"/>
        
      
      
        
          <path class="st3" d="M536.5 594.4c4 4.2 7.8 8.6 11.6 13 1.3 1.5 3.4-.7 2.1-2.1-3.8-4.4-7.6-8.8-11.6-13-1.3-1.4-3.4.7-2.1 2.1z" fill="#161616"/>
        
      
      
        
          <path class="st3" d="M548.2 586.6l19.1 8.9c1.7.8 3.3-1.8 1.5-2.6l-19.1-8.9c-1.7-.8-3.3 1.8-1.5 2.6z" fill="#161616"/>
        
      
      
        
          <path class="st3" d="M564.6 576.5a243 243 0 0017.1 9.8c1.7.9 3.2-1.7 1.5-2.6a243 243 0 01-17.1-9.8c-1.6-1.1-3.1 1.5-1.5 2.6z" fill="#161616"/>
        
      
      <path class="st4" d="M654.3 372.9a569.6 569.6 0 005.6 164.7c21.1-.1 38.1-.4 48.8-.7 73.4-1.8 105.2-6.1 170.6-6.3 16.6 0 29.9.2 37.6.4a369.5 369.5 0 001.8-168.5 433.8 433.8 0 00-58.3-7c-16.1-.8-20.6-.2-85.3 2.8-46 2.1-58.3 2.5-79.7 6-17.4 2.6-31.6 6-41.1 8.6z" fill="#fff"/>
      
        
          <path class="st3" d="M319.4 503.5l52.2 134.3c.7 1.8 3.6 1 2.9-.8l-52.2-134.3c-.7-1.8-3.6-1-2.9.8z" fill="#161616"/>
        
      
      
        
          <path class="st3" d="M371 638.8c34 18.5 68.8 35.5 104.2 51.1 1.8.8 3.3-1.8 1.5-2.6a1434.8 1434.8 0 01-104.2-51.1c-1.7-.9-3.2 1.6-1.5 2.6z" fill="#161616"/>
        
      
      
        
          <path class="st3" d="M477.2 690.1l136.9-94.3c1.6-1.1.1-3.7-1.5-2.6l-136.9 94.3c-1.6 1.1-.1 3.7 1.5 2.6z" fill="#161616"/>
        
      
      
        
          <path class="st3" d="M320.7 503.2c52-25.9 105.6-48.5 160.5-67.7 1.8-.6 1-3.5-.8-2.9-55.1 19.3-108.9 42-161.2 68-1.8.9-.3 3.4 1.5 2.6z" fill="#161616"/>
        
      
      
        
          <path class="st3" d="M373.6 636.7L525.2 544c1.6-1 .1-3.6-1.5-2.6l-151.6 92.7c-1.6 1-.1 3.6 1.5 2.6z" fill="#161616"/>
        
      
      
        
          <path class="st3" d="M479.2 435.1l44 106.4c.7 1.8 3.6 1 2.9-.8l-44-106.4c-.7-1.8-3.6-1-2.9.8z" fill="#161616"/>
        
      
      
        
          <path class="st3" d="M525.3 543.3l88.1 50.5c1.7 1 3.2-1.6 1.5-2.6l-88.1-50.5c-1.7-.9-3.2 1.7-1.5 2.6z" fill="#161616"/>
        
      
      
        
          <path class="st3" d="M651.5 373.6c-4.1 54.5 1.1 109.1 6.4 163.3.2 1.9 3.2 1.9 3 0-5.3-54.3-10.5-108.8-6.4-163.3.2-1.9-2.8-1.9-3 0z" fill="#161616"/>
        
      
      
        
          <path class="st3" d="M653.9 374.9c31.8-11.6 66.1-12.4 99.5-14.4 34.7-2.1 69.5-4.8 104.2-3.8 20.4.6 40.7 2.5 60.8 6.6 1.9.4 2.7-2.5.8-2.9a434.8 434.8 0 00-105-6.3c-35.4 1.4-71.1 3.1-106.3 6.5a223.5 223.5 0 00-54.8 11.3c-1.8.8-1 3.7.8 3z" fill="#161616"/>
        
      
      
        
          <path class="st3" d="M918.4 362a432.2 432.2 0 01-2.2 167.7l1.4-1.1-200.3 6.5-56.8 1.8c-1.9.1-1.9 3.1 0 3l200.3-6.5 56.8-1.8c.6 0 1.3-.4 1.4-1.1a438.4 438.4 0 002.2-169.3c-.3-1.9-3.2-1.1-2.8.8z" fill="#161616"/>
        
      
      
        
          <path class="st2" d="M329.2 506.2c15.4 36.7 29.8 73.8 43.4 111.2.7 1.8 3.6 1 2.9-.8-13.6-37.4-28-74.5-43.4-111.2-.8-1.8-3.7-1-2.9.8z" fill="#e8e8e8"/>
        
      
      
        
          <path class="st2" d="M331 505.4c47.6-19.5 95.2-39.1 142.5-59.3 1.8-.8.2-3.3-1.5-2.6a10325 10325 0 01-141.8 59c-1.8.8-1 3.7.8 2.9z" fill="#e8e8e8"/>
        
      
      
        
          <path class="st2" d="M473.2 445.3c14 29.9 27 60.2 39.1 90.8.7 1.8 3.6 1 2.9-.8a1608.1 1608.1 0 00-39.4-91.6c-.8-1.6-3.4-.1-2.6 1.6z" fill="#e8e8e8"/>
        
      
      
        
          <path class="st2" d="M376.2 619.5a2506.9 2506.9 0 00103.2-61c11-6.9 22-13.9 33.9-19.3 1.8-.8.2-3.4-1.5-2.6-11.9 5.4-22.9 12.4-33.9 19.3a2350.5 2350.5 0 01-103.2 61c-1.7 1-.2 3.6 1.5 2.6z" fill="#e8e8e8"/>
        
      
      
        
          <path class="st1" d="M387.8 528.6c-6.6-4-13.2 2.9-17 7.8-4.6 5.9-5.8 13-3 20 2.5 6.1 8.1 12.2 15.2 11.8 8.4-.5 13.4-7.9 17.2-14.5 1-1.7-1.6-3.2-2.6-1.5-2.7 4.7-5.7 9.9-11 12-6.3 2.6-11.9-1.2-15-6.7a17.4 17.4 0 01-1.6-14.1c1.6-4.5 10.2-15.8 16.2-12.2 1.7 1 3.3-1.6 1.6-2.6z" fill="#5222d0"/>
        
      
      
        
          <path class="st1" d="M423.4 512.3c0-4.6-4.7-3.3-7.2-1.4-4 3-8.8 9.8-9.5 14.8-.8 6.3 6.1 5.1 10.4 4.7 5.4-.5 13 1.5 8.8 8.7-2.7 4.6-8.2 6.7-13.2 6.9-1.9.1-1.9 3.1 0 3 7.6-.4 21.7-7.6 16.6-17.4-2.2-4.1-7.1-4.7-11.3-4.4-1.1.1-4.2.9-5.3.5-4-1.5-1.8-4.7-.8-6.6.7-1.3 1.4-2.7 2.3-3.9.3-.4 6.1-6.2 6.1-5 .1 2.1 3.1 2.1 3.1.1z" fill="#5222d0"/>
        
      
      
        
          <path class="st1" d="M461.6 489.7c-4.9-1.9-9.3 2.3-12.2 5.8-2.4 2.8-6.7 8.5-5.2 12.6 1.6 4.4 8.4 2.4 11.6 2 1.7-.2 3.6-.5 5.3-.2 4.5.6 6.1 5.2 4 8.9-2.5 4.4-7.4 5.8-12 6.4-1.9.3-1.1 3.2.8 2.9 7.4-1.1 20.4-8.6 14-17.9-3.1-4.5-9.3-3.4-13.8-2.9-1 .1-4.7 1.1-5.3.4-1.5-1.5-.6-5 .3-6.6 2-3.4 6.9-10.5 11.8-8.6 1.7.8 2.5-2.1.7-2.8z" fill="#5222d0"/>
        
      
      
        
          <path class="st2" d="M464 556.4l22.6-14.5c1.6-1 .1-3.6-1.5-2.6l-22.6 14.5c-1.6 1.1-.1 3.7 1.5 2.6z" fill="#e8e8e8"/>
        
      
      
        
          <path class="st2" d="M493 538.6l5.8-2.7c1.7-.8.2-3.4-1.5-2.6l-5.8 2.7c-1.8.8-.2 3.4 1.5 2.6z" fill="#e8e8e8"/>
        
      
      
        
          <path class="st2" d="M446.9 463.6l.2-.7.1-.2.7-.4c-.3.1.6.1.7.1.3.1.3.3.4.5.1.2 0-.2 0 0-.1.3 0-.2 0 0 0 .1 0 .1 0 0l-.1.1-.2.1c-.2.1-.1-.1 0 0h-.1c.1 0 .1 0 0 0 0-.1 0 .1 0 0l-.1-.1c-.1-.1 0-.1 0 .1 0-.1 0-.1 0 0v-.3l-.1.3c.1-.3-.1.1 0-.1l.1-.1c-.1.1.2 0 .2 0l.2.1c.1 0 .1.1 0 0 0 0 .1.3.1.1v.4c-.1.3-.4.4-.6.4h-.1c.2.1 0 0-.1 0l-.1-.1-.1-.5c0-.3 0-.4.3-.6l.1-.1.2-.1h.2l.2.1c.2.1.4.5.4.7 0-.8-.7-1.5-1.5-1.5s-1.5.7-1.5 1.5c0 2.8 4.5 2.8 4.6.1.1-2.7-4.2-3.2-4.8-.6-.3 1.3.6 2.7 1.9 3.1 1.2.3 2.5-.3 3-1.4.6-1.1.4-2.5-.5-3.4-.9-.9-2.4-1.2-3.5-.5a2.7 2.7 0 00-.9 3.6c.4.6 1.1 1.1 1.8 1.1.9 0 1.8-.8 1.8-1.8-.1-.8-.6-1.5-1.5-1.5-.6.1-1.4.8-1.4 1.6z" fill="#e8e8e8"/>
        
      
      
        
          <path class="st2" d="M460.5 457.6c.8-.2 1.1 1.1.3 1.2l-.3-.1c.1.1-.2-.2 0 0-.2-.2-.1-.1 0 .1l-.1-.2c0 .1 0 .1 0 0s0-.1 0 0v-.1l.2-.4.4-.2c-.4 0 .3 0 0 0l.2.1c-.1-.1-.1-.1 0 0s.1.1 0 0l.1.1c-.1-.3.1.3 0 0 0 .1 0 .5.1.3l-1 1 .7-.2c-.2 0 .2 0 0 0-.1 0-.1 0 0 0s.1 0 0 0l-.3-.3-.1-.3c0 .2.1-.3 0-.1.1-.4.5-.7.9-.7-.8 0-1.5.7-1.5 1.5s.7 1.5 1.5 1.5c2.3 0 2.8-3.2.9-4.3-.9-.5-2-.4-3 0-1.2.5-1.4 1.9-.8 3 1 1.8 3.9 2 4.6-.2.6-1.8-1.1-3.8-3-3.5-1.3.2-2.2 1.7-1.9 2.9.3 1.3 1.7 2.1 2.9 1.7.8-.2 1.3-1.1 1-1.8-.2-.7-1-1.2-1.8-1z" fill="#e8e8e8"/>
        
      
      
        
          <path class="st2" d="M660.4 378.9c.8 50.1 3.4 100.1 8 150 .2 1.9 3.2 1.9 3 0-4.5-49.9-7.2-99.9-8-150 0-2-3-2-3 0z" fill="#e8e8e8"/>
        
      
      
        
          <path class="st2" d="M663.9 380.5c20.5-3.6 41.3-4.3 62-5.2a12187 12187 0 01182.2-6.1c1.9 0 1.9-3 0-3a12790.2 12790.2 0 00-185.2 6.2c-20 .8-40 1.7-59.8 5.2-1.8.3-1 3.2.8 2.9z" fill="#e8e8e8"/>
        
      
      
        
          <path class="st2" d="M907.6 368.5c5.6 10.7 5.3 23.1 5.6 34.8a1190.4 1190.4 0 01-2.5 109.7c-.1 1.9 2.9 1.9 3 0a1235.2 1235.2 0 002.4-114.6 69 69 0 00-5.9-31.4c-.9-1.7-3.5-.2-2.6 1.5z" fill="#e8e8e8"/>
        
      
      
        
          <path class="st2" d="M670.6 529.3c78.8-14.6 159.8-12.7 239.5-14 1.9 0 1.9-3 0-3-80.1 1.3-161.3-.5-240.3 14.1-1.9.4-1.1 3.3.8 2.9z" fill="#e8e8e8"/>
        
      
      
        
          <path class="st2" d="M690.5 387.4a98 98 0 00-11.4 9c-.7.7-.5 1.9.3 2.4 3.6 2.2 8.9 1.7 11.7 5 1.2 1.5 3.3-.6 2.1-2.1-3.1-3.8-8.4-3.1-12.3-5.5l.3 2.4c3.4-3.1 7-5.9 10.8-8.5 1.6-1.2.1-3.8-1.5-2.7z" fill="#e8e8e8"/>
        
      
      
        
          <path class="st2" d="M707 385.9c-4.1 6.1-7.5 12.4-10.4 19.1-.8 1.8 1.8 3.3 2.6 1.5 2.9-6.7 6.3-13.1 10.4-19.1 1-1.6-1.6-3.1-2.6-1.5z" fill="#e8e8e8"/>
        
      
      
        
          <path class="st2" d="M712.9 397.6c4.6-.6 9.3-.7 13.9-.3 1.9.2 1.9-2.8 0-3-4.7-.4-9.3-.3-13.9.3-1.9.2-2 3.2 0 3z" fill="#e8e8e8"/>
        
      
      
        
          <path class="st2" d="M730.2 386.8c3.6 5 10.2 5.4 14.3 9.7l.3-2.4a61.8 61.8 0 00-12 8.8c-1.4 1.3.7 3.4 2.1 2.1 3.5-3.2 7.3-6 11.4-8.3.9-.5 1-1.7.3-2.4-3.9-4-10.6-4.5-13.9-9.1-1.1-1.4-3.7.1-2.5 1.6z" fill="#e8e8e8"/>
        
      
      
        
          <path class="st2" d="M669.9 423.6l12.3-.9c1.9-.1 1.9-3.1 0-3l-12.3.9c-1.9.2-1.9 3.2 0 3z" fill="#e8e8e8"/>
        
      
      
        
          <path class="st2" d="M691.8 422l83.1-4.9c1.9-.1 1.9-3.1 0-3l-83.1 4.9c-1.9.1-2 3.1 0 3z" fill="#e8e8e8"/>
        
      
      
        
          <path class="st2" d="m671.5 435.6h6.8c1.9 0 1.9-3 0-3h-6.8c-2 0-2 3 0 3z" fill="#e8e8e8"/>
        
      
      
        
          <path class="st2" d="M686.6 434.4a24 24 0 008-.8c1.9-.5 1.1-3.4-.8-2.9-2.4.6-4.7.8-7.2.6-1.9 0-1.9 3 0 3.1z" fill="#e8e8e8"/>
        
      
      
        
          <path class="st2" d="M711.2 432.3c26.3-2.5 52.7-3.2 79.2-2.1 1.9.1 1.9-2.9 0-3a582 582 0 00-79.2 2.1c-1.9.1-1.9 3.1 0 3z" fill="#e8e8e8"/>
        
      
      
        
          <path class="st2" d="M675.2 450.6a63.1 63.1 0 01-5.5 6.1c-.8.8-.4 2.2.7 2.5 3.1.9 6.3 1.3 9.5 1.4 1.9 0 1.9-3 0-3-3 0-5.8-.4-8.7-1.3l.7 2.5c2-1.9 3.8-3.9 5.5-6.1 1.1-1.5-1.1-3.7-2.2-2.1z" fill="#e8e8e8"/>
        
      
      
        
          <path class="st2" d="M685.4 456.5a204 204 0 0141.3-3.6c1.9 0 1.9-3 0-3a198 198 0 00-42.1 3.7c-1.8.4-1 3.2.8 2.9z" fill="#e8e8e8"/>
        
      
      
        
          <path class="st2" d="M730.8 449c4.9 2.5 10.8.8 15.5 3.5l.4-2.7a28 28 0 00-7.7 3.9c-1.6 1.1-.1 3.7 1.5 2.6a29 29 0 017-3.6c1.2-.4 1.5-2.1.4-2.7-4.8-2.9-10.6-1-15.5-3.5-1.8-1-3.3 1.6-1.6 2.5z" fill="#e8e8e8"/>
        
      
      
        
          <path class="st2" d="M863.2 378.8c-2.4.4-3.9 2-4.4 4.4-.3 1.6.2 3.2.5 4.7 1 4.4.4 6.6-3.6 9-1.2.8-.8 2.8.8 2.8 4.2-.1 2.7 19.3 11.6 12.8 1.6-1.1.1-3.7-1.5-2.6-4.1 2.9-3.8-6.6-4-7.6a9.6 9.6 0 00-1-3 5.2 5.2 0 00-5.1-2.6l.8 2.8c2.3-1.4 4.7-3 5.6-5.7.8-2.4-2.6-11.4 1.2-12.1 1.8-.3 1-3.2-.9-2.9z" fill="#e8e8e8"/>
        
      
      
        
          <path class="st2" d="M882.7 380c3.4-.5 4.7 1.5 4.1 6.2l-.9 1.7c-.2 1-.6 1.7-.6 2.8 0 2.1 1.4 2.5 2.1 4.1.6 1.5-.1 1.3-.3 3.2-.6 4 4.9 7.3-.3 10.9-1.6 1.1-.1 3.7 1.5 2.6 2.2-1.5 3.8-3.7 3.8-6.5 0-1.1-.5-2.1-.8-3.1-.6-2.5-.2-4.3.5-6.7.1-.5 0-1.1-.4-1.5l-1.4-1.1c-2.4-2.4-.8-3.6.3-6.3.6-1.6 1.1-2.9.6-4.6-.9-3.6-4.7-4.8-8-4.7-2.1 0-2.1 3-.2 3z" fill="#e8e8e8"/>
        
      
      
        
          <path class="st2" d="M773.3 396l47.3-3.8c1.9-.2 1.9-3.2 0-3l-47.3 3.8c-1.9.1-1.9 3.1 0 3z" fill="#e8e8e8"/>
        
      
      
        
          <path class="st2" d="M841.3 391.2c3.6.5 7.2.4 10.7-.2 1.9-.3 1.1-3.2-.8-2.9-3.3.5-6.6.5-9.9.1-1.9-.3-1.9 2.7 0 3z" fill="#e8e8e8"/>
        
      
      
        
          <path class="st2" d="M681 477.3l79.5-5.2c1.9-.1 1.9-3.1 0-3l-79.5 5.2c-1.9.1-1.9 3.1 0 3z" fill="#e8e8e8"/>
        
      
      
        
          <path class="st2" d="M777.7 470l30.2-2.8c1.9-.2 1.9-3.2 0-3-10.1.8-20.2 1.8-30.2 2.8-1.9.2-1.9 3.2 0 3z" fill="#e8e8e8"/>
        
      
      
        
          <path class="st2" d="M830.6 466.1c19.7-2 39.5-3.5 59.2-4.4 1.9-.1 1.9-3.1 0-3-19.8 1-39.5 2.4-59.2 4.4-1.9.2-1.9 3.2 0 3z" fill="#e8e8e8"/>
        
      
      
        
          <path class="st2" d="M692.8 487.2l-11.2 7.9c-1 .7-1 2.4.4 2.7 3.9 1 7.8 1.8 11.8 2.4 1.9.3 2.7-2.6.8-2.9-4-.6-7.9-1.4-11.8-2.4l.4 2.7 11.2-7.9c1.5-1.1 0-3.7-1.6-2.5z" fill="#e8e8e8"/>
        
      
      
        
          <path class="st2" d="M708.1 485.5a142 142 0 00-11.9 15.8c-1.1 1.6 1.5 3.1 2.6 1.5 3.4-5.3 7.2-10.4 11.4-15.2 1.3-1.4-.8-3.6-2.1-2.1z" fill="#e8e8e8"/>
        
      
      
        
          <path class="st2" d="M717 489.8c1.3 1 2.7 1.5 4.1 2l2.7.8 1.5.8c-.1-.7-.4-.9-.9-.6-1.3-.1-3.8 1.5-5 2.1-1.9.9-3.6 2.1-5.3 3.3-1.5 1.1 0 3.7 1.5 2.6 2.2-1.7 4.6-3.1 7.2-4.2 1.6-.7 5-1 5.5-3.1.4-1.8-1.6-2.8-2.9-3.4-2.3-1-4.9-1.3-7-2.8-1.4-1.2-2.9 1.4-1.4 2.5z" fill="#e8e8e8"/>
        
      
      
        
          <path class="st2" d="M750.3 494c12.3-1 24.6-2.3 36.9-1.6 1.9.1 1.9-2.9 0-3-12.4-.7-24.6.6-36.9 1.6-2 .1-2 3.1 0 3z" fill="#e8e8e8"/>
        
      
      
        
          <path class="st2" d="M813.9 489.5c23.1-2.7 46.3-3.7 69.6-3.2 1.9 0 1.9-3 0-3-23.2-.5-46.5.6-69.6 3.2-1.9.2-1.9 3.2 0 3z" fill="#e8e8e8"/>
        
      
      <path class="st8" d="M379.7 474.1c-3.3 9-7.3 22.1-9.2 38.2-2.3 19.9-8.2 70.7 18.4 86.2 18.2 10.6 47.2 2.2 71.7-17.8l12.7 10.1-74.7 45.3 52.7 31.4 56.9-33.8 28.7 14.2-59.6 42.1-104-51.9-52.7-137.2a5302 5302 0 0059.1-26.8z" fill="#4c4c4c" opacity=".1"/>
      <path class="st5" d="M858 355.8a86.6 86.6 0 019.7 28.8c4.5 30.2-9 54.3-18.3 70.5-28 48.5-74.7 71.8-95.5 80.7a2558.4 2558.4 0 00164-6.2 404.4 404.4 0 002-168.3 11869 11869 0 00-61.9-5.5z"/>
    </g>
  
  
    
      <path d="M830 992.2a449.5 449.5 0 014.5 45.8c.8 1.5 2.2 3.5 4.5 5.1 3.6 2.5 7.5 2.5 11.7 2.4 12.2-.3 18.3-.4 21-.9 9.5-1.9 18.5-3.6 20.4-9.6 1.3-4-1.3-8.4-1.5-8.7-1.5-2.5-3.5-3.6-6.9-5.4a29.7 29.7 0 00-11.7-3.9c-4.7-.5-8.6.2-11.1.9l-3.9-31.7-27 6z"/>
      <path class="st4" d="M811.9 794.3c-8.1 8.8-5.6 18.2-8.9 74.9-1.3 22.8-1.8 21.7-2.2 35.4-1.1 31.3.6 52.9 1.6 63.4.7 7.9 1.6 14.5 2.2 19.1 5.9 3 16 7 28.4 5.7 7.3-.7 12.8-3.1 16.9-4.8 9-3.8 15.6-8.8 19.8-12.4l-5.1-189.3c-35.3-6.7-48 2.9-52.7 8z"/>
      
        
          <path class="st3" d="M805 802.6c-5.6 60.7-6.3 121.8-2.1 182.7.1 1.9 3.1 1.9 3 0-4.2-60.8-3.5-122 2.1-182.7.2-1.9-2.8-1.9-3 0z"/>
        
      
      
        
          <path class="st3" d="M804.4 988.2c22.2 11.5 47.7 4.9 65.5-11.4 1.4-1.3-.7-3.4-2.1-2.1-16.8 15.4-40.9 21.8-61.9 11-1.7-1-3.2 1.6-1.5 2.5z"/>
        
      
      
        
          <path class="st3" d="M862.3 788.9l4.8 185.4c.1 1.9 3.1 1.9 3 0l-4.8-185.4c0-1.9-3-1.9-3 0z"/>
        
      
      
        
          <path class="st3" d="M828.7 993.5c2.4 12.1 3.9 24.3 4.5 36.6.1 1.9 3.1 1.9 3 0-.6-12.6-2.1-25.1-4.6-37.4-.4-1.9-3.3-1.1-2.9.8z"/>
        
      
      
        
          <path class="st3" d="M855.5 986a427 427 0 003.6 39.1c.3 1.9 3.2 1.1 2.9-.8-1.8-12.7-3-25.5-3.5-38.3-.1-1.9-3.1-1.9-3 0z"/>
        
      
      
        
          <path class="st3" d="M860.6 1018.5a36.6 36.6 0 0129.5 9.1c1.4 1.3 3.6-.8 2.1-2.1a39.4 39.4 0 00-31.6-10c-1.9.2-1.9 3.2 0 3z"/>
        
      
      
        
          <path class="st3" d="M833.2 1029c-.5 6.3-.2 13.9 6.5 16.8 2.6 1.1 5.9 1.2 8.7 1.4 4.8.4 9.6.6 14.4.4 11.5-.6 33.8-5.2 30.5-21.3-.4-1.9-3.3-1.1-2.9.8 2.9 14.2-19.9 17.3-29.4 17.6a98 98 0 01-15.3-.7c-9-1.1-10.1-7-9.5-14.9.1-2-2.9-2-3-.1z"/>
        
      
      <path class="st6" d="M807 802l29.4-10.4a1093.9 1093.9 0 007.3 196.9c-2 .9-4.2 1.7-6.6 2.3a47.4 47.4 0 01-32.1-3.9 986 986 0 012-184.9z"/>
      <path class="st11" d="M806.2 804c.4 17.5 1.5 40.2 3.9 66.5 1.9 20.9 4 36.5 4.6 41.4 2.9 21.1 7.3 48.5 14.7 80.5l-25.1-5.8c-1.5-32.1-2.2-66.1-1.5-101.8.4-28.1 1.6-55.1 3.4-80.8z"/>
    
    
      <path d="M784.9 876.6l2.4 13.2c5.9 35.6 5.8 61.2 6.4 82.8a1007 1007 0 005.1 77.4 133 133 0 00-9.1 4.4c-9.4 4.9-22 11.5-33.8 23.7-3.5 3.6-8.4 9.2-13.2 16.9a337.6 337.6 0 00122-10.8c-5.4-4.6-11.4-9.2-17.9-13.9a276.9 276.9 0 00-35.1-21 1234.6 1234.6 0 01-5.4-184.2l-21.4 11.5z" fill="#2d88ff"/>
      <path class="st4" d="M710.9 828c0-4.6 5.3-8.5 15.9-16.2 5-3.7 18.8-13 41.9-18.3a164 164 0 0154.8-1.7c26.9 2.3 39.3 7.7 42.6 9.1 9.8 4.4 17.2 9.6 22 13.5a56.3 56.3 0 01-12.2 22.6c-4.9 5.6-18.3 18.4-55.4 21.3-51.5 4.2-109.7-13.6-109.6-30.3z"/>
      <path d="M713.9 822.2a61 61 0 00-3.1 40.6c5.4 2.5 13.1 5.6 22.6 8.4 29.2 8.7 53 7.5 72.3 6.4 25.4-1.4 41.8-2.6 60.8-12.5a106.1 106.1 0 0023.3-16.6l-1-32.8a154.7 154.7 0 01-28.4 14.9c-62 24.8-123.4 1.8-146.5-8.4z" fill="#2d88ff"/>
      
        
          <path class="st3" d="M709.2 829c-2.1 11.3-2 22.7.1 34 .4 1.9 3.2 1.1 2.9-.8a88.2 88.2 0 01-.1-32.4c.4-1.9-2.5-2.7-2.9-.8z" fill="#2d88ff"/>
        
      
      
        
          <path class="st3" d="M710.2 863c13.5 8.7 29.8 10.9 45.4 13.2 16.8 2.4 33.7 3.8 50.7 2.4 29.1-2.4 65-5.2 84.9-29.5 1.2-1.5-.9-3.6-2.1-2.1a69.1 69.1 0 01-37.1 21.8c-15.4 4-31.7 5.8-47.6 6.9-16.7 1.2-33.4-.3-49.9-2.7-14.7-2.2-30.1-4.3-42.8-12.6-1.6-1-3.1 1.6-1.5 2.6z" fill="#2d88ff"/>
        
      
      
        
          <path class="st3" d="M887 816.2c1.9 10.4 2.5 20.8 1.7 31.3-.1 1.9 2.9 1.9 3 0 .8-10.8.1-21.5-1.8-32.1-.3-1.9-3.2-1.1-2.9.8z" fill="#2d88ff"/>
        
      
      
        
          <path class="st3" d="M712 829.3c15.9-27.4 51.5-35.4 80.9-37.1a181.2 181.2 0 0175.9 11.7c7.4 2.9 14.6 6.8 18.3 14.2.9 1.7 3.5.2 2.6-1.5-7.1-14-26.6-18.5-40.5-22a186.7 186.7 0 00-56.2-5.3c-30.4 1.8-66.9 10.2-83.4 38.6-1.2 1.5 1.4 3 2.4 1.4z"/>
        
      
      
        
          <path class="st3" d="M784.6 877.7c6.3 56.9 10.5 114 12.7 171.2.1 1.9 3.1 1.9 3 0-2.1-57.2-6.3-114.3-12.7-171.2-.2-1.9-3.2-1.9-3 0z" fill="#2d88ff"/>
        
      
      
        
          <path class="st3" d="M803.6 877.7c.2 57.5 2.1 114.9 5.8 172.3.1 1.9 3.1 1.9 3 0-3.7-57.4-5.6-114.8-5.8-172.3-.1-1.9-3.1-1.9-3 0z" fill="#2d88ff"/>
        
      
      
        
          <path class="st3" d="M797.1 1048a144.7 144.7 0 00-56.2 46.1c-.5.7 0 2.1.9 2.2a228 228 0 0062.3-.6c20.2-2.2 40.6-4.4 60.1-10.2 1-.3 1.6-1.8.7-2.5a254.6 254.6 0 00-52.9-34.2c-1.7-.8-3.3 1.8-1.5 2.6 18.8 9 36.3 20.3 52.3 33.7l.7-2.5c-19.3 5.8-39.4 7.9-59.3 10.1-20.4 2.3-41.1 4-61.5.7l.9 2.2a141.1 141.1 0 0155.1-45c1.6-.8.1-3.4-1.6-2.6z" fill="#2d88ff"/>
        
      
    
    
      <path d="M694.6 783.1l7 27.3a199 199 0 00-30.9-7.3c-5.6-.8-29.3-4.4-30.9.6-.6 1.9 2.2 4.8 2.5 5.1 2.3 2.3 5.1 2.5 7.6 3.1 5.1 1.1 6.8 3 12.1 5.6a185 185 0 0070.3 16.6l-12.4-53.7c-8.4.8-16.9 1.7-25.3 2.7z"/>
      <path class="st4" d="M690.7 532.6c-4.5 1.8-8 5.4-13.6 16.3-9 17.4-11.8 29.8-11.8 29.8-8.4 37.3-12.5 56-14 70.5-4.6 46 3 48 2.7 96.3 0 3.6-.1 11.4 4.5 19 7.3 11.9 21.4 15.3 25.3 16.3 11.5 2.8 22.4.8 31.7-.9l6.3-1.4c7.2 5.7 13.8 9.6 18.5 12.2 9.1 4.9 17 9.2 28 10.4 6.8.8 13.4.2 16.3 0 5-.4 9.1-1.2 12.2-1.8a70 70 0 0020.8 3.6c5.6.1 24 .2 40.2-11.8a67.3 67.3 0 0023.1-35.7c3.4-10.2 16.4-48.9-3.2-69.6-17-18-49.3-12.8-75.1-8.6-12.4 2-22.6 5.1-29.8 7.7a2917.8 2917.8 0 01-26.7-71.9c-5.7-15.9-14-30.9-19-47-4.5-14.4-6.9-25.9-17.2-31.7-.7-.4-10.1-5.4-19.2-1.7z"/>
      
        
          <path class="st3" d="M794.8 801.7c26.5 6.1 56.9 2.1 75.1-20.1 9.1-11.1 12-24.9 14.5-38.7a87.7 87.7 0 00-.7-42.9c-.6-1.8-3.5-1-2.9.8a82.5 82.5 0 01.7 41.3c-2.3 13.2-5 26.7-13.7 37.4-17.4 21.4-46.7 25.1-72.2 19.3-1.9-.5-2.7 2.4-.8 2.9z"/>
        
      
      
        
          <path class="st3" d="M735.1 585a100.7 100.7 0 00-11.6-39c-5-8.7-13-17-23.8-16.5-11.4.5-19.8 9.7-24.5 19.2a215 215 0 00-14.1 40.4 365.7 365.7 0 00-11.6 130.8c1.2 13.7 2.2 28.6 6.1 41.8 3.3 11.3 18.4 18 28.9 20.7a57.5 57.5 0 0037.5-3.1c1.8-.8.2-3.4-1.5-2.6a54.5 54.5 0 01-33.8 3.2c-9.9-2.2-25-8.3-28.2-18.9-1.7-5.7-2.3-11.9-3.2-17.8a378.7 378.7 0 01-4.2-57.9 364.3 364.3 0 0117.7-111.1c3.8-11.6 7.4-25.3 16.1-34.3 4.9-5 11.9-8.5 19-7.2 6.8 1.3 12 6.6 15.6 12.2a92.4 92.4 0 0112.8 40c0 2 3 2.1 2.8.1z"/>
        
      
      
        
          <path class="st3" d="M682.9 614.8c-3.4 36.5.4 73.6 11.2 108.7 5.2 16.8 11.3 35.4 21.9 49.7a77 77 0 0039 25.8 69 69 0 0052.4-2.5c1.7-.9.2-3.5-1.5-2.6a64.6 64.6 0 01-47.7 3 74.5 74.5 0 01-41.6-28.1c-9.2-14-15-30.9-19.8-46.9a275.2 275.2 0 01-10.9-107c.2-2-2.8-2-3-.1z"/>
        
      
      
        
          <path class="st3" d="M676.4 604.2c.6 13.1 2.5 26 5.8 38.7.5 1.9 3.4 1.1 2.9-.8a173.6 173.6 0 01-5.7-37.9c-.1-1.9-3.1-1.9-3 0z"/>
        
      
      
        
          <path class="st3" d="M733 585.2c18.9 45.1 35.6 91.2 50.1 138 .6 1.8 3.5 1.1 2.9-.8a1476.2 1476.2 0 00-50.1-138c-.8-1.7-3.7-.9-2.9.8z"/>
        
      
      
        
          <path class="st3" d="M692.8 784.5l7.8 27.1c.5 1.9 3.4 1.1 2.9-.8l-7.8-27.1c-.6-1.8-3.5-1-2.9.8z"/>
        
      
      
        
          <path class="st3" d="M701.8 809.8c-20-7.9-41.5-10.6-62.9-7.8-.8.1-1.9.9-1.4 1.9 2.6 6.4 9.9 8.3 15.7 10.8 8.3 3.6 16.6 7.1 25.1 10.1a145 145 0 0052.8 9.8c1.9 0 1.9-3 0-3-16 .4-31.7-2.8-46.8-7.9-7.3-2.4-14.4-5.2-21.5-8.2l-11.5-4.9c-3.9-1.7-9.2-3.3-11-7.6l-1.4 1.9c21.1-2.8 42.3-.1 62.1 7.7 1.8.8 2.5-2.1.8-2.8z"/>
        
      
      
        
          <path class="st3" d="M718 779.1c2.1 18.5 10.9 35.5 12.2 54.1.1 1.9 3.1 1.9 3 0-1.3-18.6-10.1-35.6-12.2-54.1-.2-1.9-3.2-1.9-3 0z"/>
        
      
      <path class="st11" d="M688.6 780a407 407 0 01-12.6-37.7c-1.9-6.9-14.1-52-11.5-110.4.7-15.3 2.4-32.2 14.6-44.5 4.7-4.7 10-10 14.6-8.9 19.2 4.5-15.3 106.5 33 161.6 24.8 28.3 60.6 31.9 66.4 32.4 51.4 4.6 86.1-32.3 90.5-37.1a64 64 0 01-4.2 26.2 66.5 66.5 0 01-27.2 32.4 71.2 71.2 0 01-55.4 6.8 91 91 0 01-76.3-23.5 39.4 39.4 0 01-31.9 2.7z"/>
      <path d="M680.2 603.2c1.3-.1 1.8 11.7 8.4 50.2 7.7 45.5 11.6 68.2 17.3 81.1 7.2 16.4 25.8 45.8 81.6 67.5a94.3 94.3 0 01-66.9-24.1l-18.8 4.2a449.8 449.8 0 01-12.6-45.5c-15.6-70.1-11.9-133.2-9-133.4z" fill="#4c4c4c" opacity=".1"/>
    
    
      <path class="st4" d="M548.1 562.6c-.5 2.1 2.6 4.9 5.1 6.1 4.1 2 8 .3 8.6 0 0 0 9.2-1 17.7 4a40 40 0 019.6 11.1c8.5 11.6 9.6 15.5 15.2 19.2a26 26 0 0010.1 4l10.6 12.1c16.1 18.8 17.2 22.2 24.8 28.8 8.2 7.2 18.1 16 29.8 14.7 6.2-.7 11.2-4.1 19.2-12.1a203.4 203.4 0 0038.4-56.1 156.2 156.2 0 0014.7-38.9c.6-3.3 6.5-33.1-2-36.9-3.3-1.5-7.6 1.4-14.1 6.6-23.5 18.8-37.4 38.5-38.4 39.9a323.6 323.6 0 00-25.8 44.5l-42.9-22.2c-.9-1.9-2-4.9-2-8.6 0-6.1 3.1-8.4 5.1-15.2 2.1-7 2.4-16.6-1-18.2-2.4-1.1-7 1.6-9.1 5.1-2.2 3.6-.9 6.8-3 8.1-2.7 1.7-7.6-1.7-8.1-2-5.4-3.8-4.9-8.5-9.1-16.2-4.5-8.3-10.5-12.9-14.1-15.7-5-3.8-10.6-8.1-16.2-6.6-.9.2-4.6 1.3-5.9 4.6a7 7 0 00-.2 4 8.8 8.8 0 00-13.6 5.6 8 8 0 00.2 3.2c-.5-.2-4.8-1.3-7.8 1.3-.5.4-2.2 1.9-2.2 4 0 1.7 1.2 3.1 3.3 4.8 4.5 3.7 7.9 4.6 12.1 6.9 2.1 1.1 4.9 3 8.1 5.9-5.5 0-16.3.5-17.1 4.2z"/>
      
        
          <path class="st3" d="M672.8 610.1c17.5-34.1 36.8-70.6 72.7-88.5 1.7-.9.2-3.4-1.5-2.6-36.3 18-56 55-73.7 89.5-1 1.8 1.6 3.3 2.5 1.6z"/>
        
      
      
        
          <path class="st3" d="M628.7 589.3c15.4 10.3 34.6 14.6 47.8 28.1 1.4 1.4 3.5-.7 2.1-2.1-13.4-13.7-32.8-18.1-48.4-28.6-1.6-1.1-3.1 1.5-1.5 2.6z"/>
        
      
      
        
          <path class="st3" d="M616.2 609.1a153.3 153.3 0 0026.9 34.1c9.4 8.9 21.7 20.3 35.5 20.6 12.6.3 21.2-10.2 27.9-19.5 10-13.9 19.2-28.3 27.8-43.1 8.8-15.1 18.1-31.1 18.5-49 0-1.9-3-1.9-3 0-.4 19.2-11.4 36.4-21 52.4-9.2 15.5-18.7 32-30.6 45.5-5.5 6.3-12.6 11.5-21.3 10.6-9.7-1-18.3-8-25.5-14.1-13.1-11-24-24.3-32.7-39-.9-1.7-3.5-.2-2.5 1.5z"/>
        
      
      
        
          <path class="st3" d="M618.9 607.2c-4-1.9-8.6-2.5-12.5-4.7a31 31 0 01-9.4-10c-4.6-6.8-8.8-13.9-15.3-19.1-3-2.4-6.5-4.4-10.3-5.4-4.2-1.2-8-.5-12.3-.3-2.7.1-8.3.2-8.5-3.9-.3-4 5.3-3.4 7.6-3.5 5.1-.3 10 0 14.7 2 1.8.7 2.6-2.2.8-2.9a37.6 37.6 0 00-17.3-2c-2.9.2-6.7.2-8.3 3.1-1.4 2.5-.3 5.7 1.6 7.7 3.2 3.4 8 2.7 12.2 2.3 15-1.5 23.9 10.5 31.3 21.8 2.6 4 5.3 8 9 11 4.5 3.6 10.1 4.1 15.1 6.6 1.8.7 3.4-1.9 1.6-2.7z"/>
        
      
      
        
          <path class="st3" d="M630.9 587.9c-5.4-6.3-.4-16.1 1.5-22.9 1.4-4.9 3.4-11.7.8-16.6-1.5-2.9-4.8-4.7-8-3.5a8.9 8.9 0 00-4.2 3.7c-1.4 2.3-1.8 8.6-4.6 9.3-1.9.4-1.1 3.3.8 2.9 3.4-.8 4.1-4.2 5.1-7.1.5-1.5 1.5-5.4 3.4-5.7l5.4 3 .4 2.6c.2 3.6-.9 7.3-1.8 10.7-2.4 8.1-7.1 18.3-.8 25.8 1.1 1.4 3.2-.8 2-2.2z"/>
        
      
      
        
          <path class="st3" d="M549.7 547c-1.5-.8-3.1-1.7-4.3-2.8-1.7-.9-2-2.2-.9-3.8-.1-2.3 1.1-3.1 3.5-2.7 4.5-.3 8.4 1.9 12.3 3.7a79.7 79.7 0 0118.7 11.5c1.4 1.3 3.6-.8 2.1-2.1a75 75 0 00-16.2-10.5c-5.5-2.8-11.4-6.3-17.8-5.6-3.3.4-7.2 1.6-7.1 5.5.1 4.5 4.7 7.3 8.1 9.3 1.7 1 3.2-1.6 1.6-2.5z"/>
        
      
      
        
          <path class="st3" d="M553.6 534.9c-5.3-4 1.6-6.7 3.7-7.1 2-.3 4 .2 5.9.8 3.2 1.1 6.1 3 8.9 4.9a100 100 0 0114.9 12.7c1.4 1.4 3.5-.7 2.1-2.1-7.5-7.6-18.3-18.4-29.6-19.4-7.1-.6-14.8 7.1-7.4 12.7 1.5 1.3 3-1.3 1.5-2.5z"/>
        
      
      
        
          <path class="st3" d="M566.6 525.9c-3.6-4.5 4.5-6.1 6.9-5.7l2.9.8a29 29 0 018.7 5c4.7 3.7 8.6 8.4 12.2 13.2 1.2 1.5 3.8 0 2.6-1.5-6.3-8.3-13.7-17-24.2-20-3.5-1-8.1-1.3-10.9 1.6a6.3 6.3 0 00-.3 8.7c1.2 1.5 3.3-.6 2.1-2.1z"/>
        
      
      
        
          <path class="st3" d="M596.3 537.1c3.7 6.3 7 13 11.2 19 2.6 3.7 6.4 6.4 11 4.5 1.8-.7 1-3.6-.8-2.9-6.1 2.4-9.3-6-11.7-10.1l-7.1-12.1c-.9-1.6-3.5-.1-2.6 1.6z"/>
        
      
      
        
          <path class="st3" d="m547.2 548.4 16.9 11c1.6 1.1 3.1-1.5 1.5-2.6l-16.9-11c-1.6-1-3.1 1.6-1.5 2.6z"/>
        
      
      <path class="st8" d="M544.2 538.5c4-1.9 10.1 3.4 13.9 6.5 18.5 15.1 19.4 9.8 30 20.7 10.8 11 10.5 17 21.3 23.6a47 47 0 0013.2 5.5c1.9 2.7 4.7 6.7 8.4 11.3 13.3 16.7 20.2 25.4 31 29.4.9.3 18.2 6.5 32.6-1.9 11.5-6.7 11.5-17.4 24.9-52.3 16.9-44 23.7-49.5 28.1-49.1 2.6.2 5 2.6 6.1 4.5 2.3 3.9.5 8.1-1.9 17.8-2.3 9.2-1.8 9.6-3.2 15.2-3.9 14.8-10.9 23-30.7 56.5-3.2 5.3-7.5 12.7-14.9 21.3-6.3 7.4-10.3 11.8-16.5 13.9-10.4 3.5-20.6-1.9-25.5-4.5a61.3 61.3 0 01-18.7-16.5c-6.9-8-15.7-19.3-24.9-33.9a24 24 0 01-9-1.9c-3.1-1.4-7.1-3.9-16.8-17.8-6.9-9.9-6.8-11.3-10.3-13.6a34.2 34.2 0 00-15.8-4.5c-8.1-.8-12.4.9-14.5-1.9-1.3-1.8-1.4-4.8 0-6.5 3.4-4.2 15 1 15.5-.3.3-.9-4.3-3.3-12.3-8.1-9.5-5.7-12.5-7.9-12.3-10.3a3.8 3.8 0 012.3-3.1z"/>
    
    
      <path class="st4" d="M872.5 500.4c-5.4 1.1-7.5 11.2-9.6 20.7a120.8 120.8 0 00-2.5 30.3c.7 21.5 5.3 42 11.1 54.1 3.1 6.5 5 7.3 8.6 15.7 1.2 2.8 2.1 5.2 4.5 7.1a13.8 13.8 0 0011.1 2c6.2-1.5 9.5-6.9 11.1-9.6 4.5-7.7 4.6-15.6 3.5-29.3-1.6-20.7-2.4-31-5.6-41.9a116 116 0 00-16.2-34.4c-5.2-7.8-10.8-15.7-16-14.7z"/>
      
        
          <path class="st3" d="M872.6 503.1c5.4-.6 9.3 6 12.1 9.9a126.2 126.2 0 0117.4 35.1c5.2 16.6 7.4 34 7.2 51.4-.1 9 0 20.8-7.6 27.2-3.5 2.9-8.8 4.7-13.1 2.6-4.5-2.2-7.1-8.2-9.4-12.3-9.2-16.6-15-35-17-53.9-2.2-20.5-.7-43 10.6-60.7 1-1.6-1.6-3.1-2.6-1.5-11.6 18.2-13.2 41.3-11 62.2 2.2 21.6 9.3 43.1 21 61.4 4.3 6.7 10.3 10.7 18.3 7.6 8.3-3.2 12-11.5 13.1-19.8 2.8-19.6.1-41.3-5.2-60.3a136.4 136.4 0 00-13.3-31.8c-2.8-4.8-6-9.4-9.4-13.7-2.9-3.6-6.1-7-11-6.5-2 .3-2 3.3-.1 3.1z"/>
        
      
      <path class="st6" d="M875.7 503a145.5 145.5 0 00-2.3 43.6c1.6 15.5 5.4 26.9 10.3 41.7 3.9 11.7 9.3 25.5 16.8 40.7a14 14 0 01-9 2.3c-7.3-1.1-11.6-9.6-14.5-16.2-10.6-23.6-15.9-35.4-16.8-55.6-1.3-27.7 6.1-58.4 12.6-58.5 1.2 0 2.2 1.1 2.9 2z"/>
    
    
      <path d="M735.1 520.1a409.8 409.8 0 00-2.5 54.6c.9 30.2 7.5 54.2 11.6 68.7 3.7 13 7.6 23.7 10.6 31.3.3 2.9 1 7 2.5 11.6 7.2 21.6 25.8 32.3 30.3 34.9a73.4 73.4 0 0051.5 6.6 70.5 70.5 0 0041.9-25.3c4.6-6.1 8.7-14.1 12.6-35.4 1.8-9.9 6-35.9 3-80.3-3.1-45.2-10.4-62.2-14.7-70.7-3.8-7.7-7.8-13.7-10.6-17.7a119 119 0 00-53.6-9.1 144.7 144.7 0 00-46 12.1 225.3 225.3 0 00-36.6 18.7z" fill="#ec615b"/>
      
        
          <path class="st3" d="M733 522.8c-7.4 52.8.5 106.9 22.6 155.4.8 1.8 3.4.2 2.6-1.5a276.9 276.9 0 01-22.3-153.1c.2-1.9-2.7-2.7-2.9-.8z"/>
        
      
      
        
          <path class="st3" d="M751.5 670.8a70.9 70.9 0 0045.5 55.5 77.7 77.7 0 0076.2-14 54.6 54.6 0 0019.3-35.7c.2-1.9-2.8-1.9-3 0-3.3 33.7-40.6 52.8-71.4 50.9a68.3 68.3 0 01-63.7-57.6c-.3-1.8-3.2-1-2.9.9z"/>
        
      
      
        
          <path class="st3" d="M734.8 522.8c39.7-25 89.4-42.7 135.1-23 1.8.8 3.3-1.8 1.5-2.6-46.8-20.2-97.4-2.7-138.2 23-1.5 1.1 0 3.7 1.6 2.6z"/>
        
      
      
        
          <path class="st3" d="M869.9 499.5c10.8 9.9 15 26.5 18.1 40.4 3.4 15.2 5.4 30.8 6.7 46.4 2.6 30.9 1.7 62.1-4.5 92.6-.4 1.9 2.5 2.7 2.9.8 6.6-32 7.4-64.7 4.3-97.2a325.6 325.6 0 00-7.3-47c-3.3-13.2-7.7-28.6-18-38.1-1.5-1.3-3.6.8-2.2 2.1z"/>
        
      
      
        
          <path class="st3" d="M769.2 687.6a81.2 81.2 0 0045 20.8c1.9.2 1.9-2.8 0-3a77 77 0 01-42.9-20c-1.4-1.2-3.6.9-2.1 2.2z"/>
        
      
      <path d="M814.5 490.5l11.2 17.5c7.7 18.7 17.2 46 23.1 80.2 2.9 17.1 5.7 33.1 4.7 53.1a185 185 0 01-28.7 88.3 72.5 72.5 0 0062.7-37.7 72.9 72.9 0 006.9-30.3c4.2-59 .3-97.1-1.9-110.2a111.5 111.5 0 00-21.8-54 101.3 101.3 0 00-56.2-6.9z" fill="#4c4c4c" opacity=".1"/>
      <path class="st6" d="M882.9 522.1c-3.6.2-5.4 21.9-6.6 36.5-2.7 33.4-.7 57.5-.3 66.2 1.1 23.4-4.4 57.2-34 101.7a81.6 81.6 0 0019.4-7.8c6.6-3.7 16-9 22.8-20a52.4 52.4 0 007.2-20.6c3.2-18.4 6.4-44.8 5.3-76.5-1.5-37.6-8.8-79.8-13.8-79.5z"/>
    
    
      <path class="st4" d="M725.8 432.8c-.7 2 0 5.9.8 10.9a105.6 105.6 0 008.3 24.5 102.5 102.5 0 0029.3 35.7l26.2-10.6a35 35 0 0011.1-13.4 38.5 38.5 0 00-1.9-34.2c-16.1-28.1-70.3-22.7-73.8-12.9z"/>
      
        
          <path class="st3" d="M724.2 440.9a127.4 127.4 0 0026.7 54.3c3.7 4.4 7.6 8.7 13.5 10.1 1.9.4 2.7-2.5.8-2.9-6.2-1.4-10.4-7.1-14.3-11.9a121.4 121.4 0 01-23.8-50.4c-.4-1.8-3.3-1-2.9.8z"/>
        
      
      
        
          <path class="st3" d="M746.8 465.5c-.4-8.7 10-6 13.4-1.5 4 5.2 2.9 16.4-5.9 14.9-1.9-.3-2.7 2.6-.8 2.9 11.3 1.9 15.1-11.9 9.1-19.7-5.2-6.8-19.4-8.3-18.8 3.3.1 2 3.1 2 3 .1z"/>
        
      
      <path class="st1" d="M724.7 438.7c-1.3-4.6-3.5-12 .4-19.3 3.4-6.2 9.3-8.8 11.7-9.6-.1-1.4-.4-9.2 5.6-15.7a21.9 21.9 0 0115.3-6.8c2.5-1.9 6.1-4.3 10.9-6 1.7-.6 9.6-3.4 18.9-2 12.8 1.9 15 9.6 29.3 15.7 4.8 2 12.4 4.5 22.9 4.8l-7.6 8.8c1.9 2.1 4.5 5.4 6.4 10 1 2.3 2.8 7.6 2.4 17.7-.4 9.8-2.8 17.7-4.8 24.5-3.6 11.8-5.7 15.3-3.6 20.1 2.3 5.4 7.8 6.9 7.1 9.2-.8 2.5-7.8 2.8-12.7 2.2-7.3-.9-11.9-4.1-12.7-3-1 1.3 5.9 5.9 4.8 8.9-1.3 3.9-14.4 3.3-23.8 1.1a61.2 61.2 0 01-32.7-20.6c2.5-5.6 2.2-11.8-1.2-16.1-.3-.4-5.3-6.5-11.3-4.8-3.3 1-5.1 3.9-5.6 4.8a42 42 0 01-19.7-23.9z"/>
      <path d="M737 410.5c2.1 6.3 15.8 5.1 26 8.5 7.3 2.4 17 8.7 25.7 26.1-2.4-7.8-13.5-40-39.9-47.2-2.5-.7-5.2-1.2-8.3-1.4-1 1.2-3 4-3.6 7.9 0 .5-.6 3.9.1 6.1z" fill="#4c4c4c" opacity=".2"/>
      <path d="M758.3 386.7c1.8-1.4 4.4-3.2 7.7-4.6a37 37 0 016.9-2.1 84.6 84.6 0 0023.8 14.6 84.6 84.6 0 0042.6 5.3 25 25 0 01-7.4 8.5c-13.9 9.9-34.7 1.4-44.6-2.6a90.1 90.1 0 01-29-19.1z" fill="#4c4c4c" opacity=".2"/>
      <path d="M807.5 455.5c-1.6.5.5 11.8 1.2 15.2a75.5 75.5 0 006.2 18.3l9.5 3.1c-11.8-30.7-15.6-37-16.9-36.6z" fill="#4c4c4c" opacity=".1"/>
      <path class="st8" d="M760.2 467.6c.3 2.5.5 4.8-.8 6.7-1.6 2.3-4.1 1.9-6.3 5.2-.8 1.2-.8 1.8-.6 2.1.5.9 2.6.5 3.6.5 5.2.2 8.3 5.5 11.9 8.6 2.9 2.6 7.9 5.3 16.9 5.5a92.5 92.5 0 01-22.4-17.1 16 16 0 00.9-12.1c-1.4-3.8-4.6-6.5-5-6.2-.5.3 1.3 2.6 1.8 6.8z"/>
    
  
</svg>
